<svg xmlns="http://www.w3.org/2000/svg" version="1.0" viewBox="0 0 400 400">
  <path d="m186 46-6 4-5 3-7 4-9 6c-4 3-3 2 8-3a106 106 0 0 0 14-6l2-2c0-1 1-1 0 0h4l2-2h-1l1-2 2-3-5 1zM190 53l-2 6c0 4 0 4 1 3s1-1 1 1l-1 5-1-1c0-2-1-2-1 2v5-2l1-2 2-1c2-2 2-4 1-11l-1-5zM397 62l-2 2 3-2c2-2 1-2-1 0zM391 68c-1 1-1 1 0 0l2-2-2 2zM104 70l2 2-1-3c-2-1-2-1-1 1zM138 71l-10 6-10 6-1 1-2-1-3-2 1 2 1 2c1 2 1 2 6-1l15-9 8-5-5 1zM385 85a132 132 0 0 1-21 18c-1-1-2 0-3 1-1 2-4 3-2 1a172 172 0 0 0-18 18l-4 2-1-2v-3l-1-1-4 1-1-1-2 5-1 5h-1v-2c-2-1-2-1-1 1 0 1-1 1-4-2-7-5-19-7-36-7-16-1-32 2-30 4 1 1 1 2-1 2h-1c1-2-2-1-7 1l-5 1-1 1-2 2-8 3c-7 3-7 3-7 1h-2c-1 4-2 5-3 4h-1l-2 3c-4 2-13 11-11 11l1 5c0 5 0 5 2 4l1-2 4-4 4 2c4 3 4 6-2 18l-5 11h3l2-2 1-1 1 1h2l1-2c-1-1 0-1 0 0l2-1 7-5 5-4c-2 0-1-1 2-4l3-4v5c0 4 0 5-5 8-4 2-6 4-6 5l1 2h3l-2-2 1-1 5-3 3-2v2l1 3 1-4 1-3 2-2v-1c-2 2-4 1-4-3s0-4 6-8l6-4h2c1-3 11-7 13-7l1 2 2 2c1 0 2-1 1-3 0-2 0-2 4-2l6-1c1-1 12-1 18 1 3 0 12 9 12 11 0 1-7 2-16 1l-12-1-8-1c-2-1-5 0-4 1l-1 1v2h6c0-2 1-2 7-2 11 0 15 1 17 4l1 1 1-2 1 1 2 1 1-1c0-2 4 1 5 3 0 2 1 2 4 2 4-1 4-1 5 1l2 2 1 5c0 7-2 8-2 1v-5l-5 5c-3 3-4 5-4 7 1 5 0 7-8 8-7 1-9 3-7 4v1c-1-1-2 0-3 1l-2 4c-1 2-1 2 1 2l2-1 4-2 6-3 3-2c1-1 1-1 0 0v5c2 0 0 4-1 5l-1 2-5 7-3 5-2 2c-2 2-1 3 1 2h2c0 2 3 2 6 0 4-4 5-3 1 0l-3 5-5 6c-4 4-5 5-3 7h3c1-2 2-2 2-1h1l2-2 4-4 4-5 2-2c1 1 12-7 13-10 1-2 1-2-1-1v-2l9-8c-2 4 1 2 3-3 3-4 5-13 3-13h-1v-1c1 1 4-2 4-3h-1c-1 0-1-1 1-1v-6c2 2 2-2 0-4s-3-8-1-6l1 3 1 3c1 0 1-9-1-12v-5c-2-3-3-6-1-5l1-2 1-3 4-2 3-2c2 0 2 0 0-5l-1-5c6-4 10-9 10-11-1-1 2-4 4-3l3-2c2-3 3-5 1-3l1-3c4-4 5-4 2 0l3-3c5-5 6-6 4-8l-1 1v1l-1-1c1-1 3-3 4-2v1c-1 2 7-5 11-11 3-2 4-4 3-4l-3 3-3 2v1l-1 1-1 2h-1l-1 1-1 2c-1 2-2 2-2 1-1-1-1-2 9-12l5-7 1-1c2 0 4-3 5-5 0-1-1-2-2-1v-2l2-2-15 13zm12-10-2 3-3 2 2-3 3-2zm-93 47c8 2 18 7 17 8l-7-2-16-3c-10 0-29 1-32 3h3l31-1c0 1-6 2-13 2a163 163 0 0 0-23 1l-4-2v2l-1-1h-1l-1 2v1l-6 1c-7 3-7 3-3 0 1-2 3-3 4-2 2 0 2 0 2-2s1-3 4-4l18-3h3c0-2 15-2 25 0zm-60 7-1 2h-1l-2 1c1 1 0 2-2 3s-3 2-2 3h-2l-1 1c-1-1 0-2 1-3 3-2 2-3-1-1l-2 1 15-8-2 1zm61 0h-2c-3 0-2-1 0-1l2 1zm5 0c-1 1-1 1 1 1h2l2 2c3 1 3 1-1 1-5-1-8-3-6-4h2zm-7 6 8 4c2 2 2 2-2 1l-5-2-22-1h-12c2 1 2 1-2 1s-5 0-3-3 27-3 38 0zm1-2h-2c-1-1 0-1 1-1s2 0 1 1zm12 2c3 1 4 3 2 3l-5-2-3-2c2-1 1-1 6 1zm-86 2v1l1 2c-1 1-3-2-2-3l1-1v1zm32 1-8 4c-10 3-16 6-16 7l-1 1-5 2-5 2c-1-1 22-14 28-15l7-1zm16 3h-3c-1-1 0-1 2-1 1 0 2 0 1 1zm-62 11-5 3c-1-1 4-6 6-6v-1l-3 2-3 2 3-4c2-2 3-2 4-1s1 2-2 5zm35 0-3 1 1-1 4-2-2 2zm80 8 1 9-1 3 1 3v3l-1 4c-1 0-2 1-2 3 0 1 0 2 2 1v1c-2 3-3 1-3-15l-2-16c-2-2-2-2 0-3 3-2 4-1 5 7zm7 15h-1l1-2v2zm-4 12-1 2 1-4v2zm-14 1-1 1v-1l1-2v2zm16 2v3h2l-1 1c-1 0-7 9-6 10l-3 4-3 3v-5l-1-1c-1-1 0-2 1-1 1 0 5-5 5-7l-2-1c-2 0-2 0-2-3 1-2 1-2 5-3l4-1h2l-1 1zm-14 10v4c0 3-3 8-4 8l-3 2-4 4-3 2 2-2c3-2 3-3 1-5l-2-2v-1h1l1-2 2-3h2v5l2-1v-2l-2-1h2l2-2v-1c-2 1-1 0 1-3 1-2 2-2 2 0zm-6-1-2 3-2 2 1-3 3-2zm4 20-2 1 1-2c2-2 3-2 1 1zm-3 2-2 1c0 1-1 1 0 0l2-1zm-6 4-2 2c-1 1-1 1 0 0l2-2zm-6 6-9 8 4-4c4-5 5-5 5-4z"/>
  <path d="M237 133v1l2-1 1-1-3 1zM274 135h2c1-1 0-1-1-1s-2 0-1 1zM330 193l-1 1h1l1-2-1 1zM2 77l3 3c-1 0 19 23 22 24 2 2 8 9 7 10l-4-3-8-7-5-3 3 3c7 8 12 16 9 14l1 2 2 3 2 3 1 2 8 10c9 8 10 10 9 12 0 2 0 2 1 1s1-1 3 1 3 3 2 4v1l-1 1h1c2 0 2 0 1 1l-1 2 2-1 2-3v3c0 2 0 2 1 1s2-2 3-1l1-1c-1-1-1-1 0 0v5l-2 5-1 3v8l1 5c1 0 1 1-1 1-2-1-2-1-2-12 0-6-1-6-1-1-2 12-2 15-1 22a130 130 0 0 0 26 56v2l1 1 1 1c-1 1 2 4 3 4l3-4c2-3 2-3 0-6a125 125 0 0 1-11-24h4l-1 1 4 9c5 11 8 15 9 14v-1c-1-2-1-3 1-2l-1-4-1-4-1-1-6-13v2c0 3 0 3-1 2v-6s4-2 9-2l17-5 1-4 1-3 1-1 3-3 1-3-4 3c-4 3-6 3-8 3l-3 1-3 2-8 4c-2 2-4 3-5 2l-1 1-2 1c-1 1-2 0-2-1l-1-10v-19l-2 6c-2 6-2 6-2 2l-1-4v10l1 2v3c1 1 2 5 1 8l2 7-1 1-3-3-2-4 1-1 2 3 1 2-4-14-1-3-1-2v-1l1-1v-1l1-3v-2l1-5 1-5c1-2 2-1 2 0v2c1 0 2-2 1-5l2-4h1c-1 1 0 1 1 1l3-1h-1c-1 0-1-1 1-2l3-3c1-1 1-1 2 1 1 1 1 2-1 2s-2 0-2 2l-1 2-3 2h-2v6c0 1 1 1 2-2l1-3 2-2h2l-1 3-1 1 3-2c2-3 2-4 0-3-1 0 0-2 3-4l5-4-2 3c-3 3-2 3 5-2l11-3c5-1 6-1 10 3 4 5 7 9 6 11l2 1 3 2c3 1 5 0 6-3v-1l-3 2c-2 0-6-2-6-4l-3-4-5-5-2-3 6 1c8 0 16 3 18 5l3 1h3l2 3 3 3 4-4 9-10 6-7-2-2-4-3c-1-1-1-1 1-1l3 2c2 2 2 2 3 1v-1l-2-1-4-3-6-5-4-3-7-4c-5-3-6-4-8-12l-3-9-1-1c-2 1 1-3 3-5l1-1-4 2c-2 2-3 3-4 2s-1-1-1 1v9l2-2 2-2-1 2-3 3v3c0 2 0 2-5 1l-5-1 1 1 4 1 5 2 1 1h-5l-4-2-2-1-5-2h-3l-1-1h6l-4-2-4-1 4-3c5-3 7-4 5-2l1 1 1-2c-1-1 0-1 2-1l-1-5c-1-3-5-1-5 3l-2 3-6 3c-4 2-6 3-7 2-2-1-4 1-4 3l-1 2h-3c-8 3-10 2-16-6-2-4-4-5-5-5l-4-2c-1-1-2-1-4 1-3 4-4 4-7 0l-4-3-3-2a52 52 0 0 0-16-12l-5-4-3-3 3 3 8 10c12 12 20 24 10 16l-6-4-4-2-5-4-19-17C6 79-2 72 2 77zm5 5c1 1 1 1 0 0l-2-2 2 2zm67 39-1 1-1-1 1-1 1 1zm12 3 3 3 1 2h-2c-1-1-3-2-4-1v-1c2-1 2-2-2-4l-1-1 5 2zm33-2-2 2c-1 1-1 1 0 0l2-2zm27 1-1 2c-2 1-2 1-1-1s2-3 2-1zm-87 5 1 2 2 2-3-1-2-3-1-2c-2-1-1-2 1-1l2 3zm88-2-2 2c-1 1-1 1 0 0l2-2zm-62 4h-3l2-1 1 1zm-17 2c1 1 1 1 0 0l-2-2 2 2zm80 6h-3l-2-2c0-1 4 0 5 2zm11 5h-1l-2-1h2l1 1zm-14 6c1 2-2 1-5-1h1l4 1zm9 4-7-4 4 2 3 2zm-47 5-2 1c-2 1-3 1-2 2h-2v1l-1 1c-2-2-1-3 7-6v1zm17 0h-4c-1-1 0-1 2-1s3 0 2 1zm-56 10c-1 3-1 3-1 1v-3c2-2 2-2 1 2zm48-2-3 1-5 2h-3c-1-2-1-3 1-3v2c1 1 2 0 3-1l5-2c2 0 3 0 2 1zm-46 7h-1v-1c0-1 1-1 1 1zm14-1-2 1c0 1-1 1 0 0l2-1zm-12 3-1 1v-2c1-2 2-1 1 0zm24 0-1 1h-2l2-2 1 1zm-27 2h-1l1-2v2zm4 4v18l-2-7-1-2-1 2-1 1-1-4 1-1c2 2 3 1 3-1l-2-2-1-4c1-2 4-2 4 0zm3 23-1 2-1 3h1c0-3 2-3 2-1 1 0 1 1 0 0-2-1-1 1 1 3l1 2c-1-1-2 0-2 1h-2v1h2l5 12v1l1 1 1 4c2 4 2 4 0 3l-1-1-1-1-3-4c-1-3-2-5-3-4v-4l-2-1-1-5 1-4h2l-1-1-3-1v-2l1-3v-1h2zm41 4-2 2h-1l3-2zm-43 21 1 2-2-2-1-2 2 2zm23 10v3l-2-3c-2-5-1-4 1 0zm-7 5c2 3 1 3-2 1l-1-3 3 2z"/>
  <path d="m78 222 1 2v-3c-1-1-1-1-1 1zM110 89c-1 1-1 1 1 3l5 3h3l-2-3c-2-2-3-2-5-2l-3 1 3-2 1-2-3 2zM104 93l-4 4 4-2h1l1-2 2-2-4 2zM192 93l1 1v-1l-1-1v1zM242 100l-1 10 1-8 1-10-2 8zM14 99l2 2-1-2-3-2 1 2zM183 100l1 3c1-1 0-6-1-6v3zM195 102c-1 1-1 1 1 1l3-1h-4zM140 104c0 2 1 2 2 1 2-2 2-2 0-2l-2 1zM177 103l-1 2c0 1 1 2 3 2l2-2 1-1-1 7c-1 5-2 6-3 5h-1c0 2 4 3 5 2h1l1-1c0-1 0-2-1-1v-2l1-6c1-3 0-4-1-5h-6zM202 103v1l3 2c1 2 1 2 1 0-1-4-2-4-4-3zM136 108v1l-1 1v1l2-2c1-2 0-3-1-1zM271 111c-3 2-3 3 0 1l5-5-5 4zM135 114l1 1v-1l-1-1v1zM72 116c0 2 0 2 1 1v-2c-1-1-1-1-1 1zM174 119c-1 1 0 2 1 1 2 0 3-1 1-1h-2zM179 124v3l2-7-2 4zM190 122l1 1h1l-1-2-1 1zM185 123l1 1 1-1-1-1-1 1zM197 125v1l1-1v-1l-2 1zM202 125l-1 2 1-2c1-1 0-2 0 0zM205 136l1 2 1 1v-4l-2 1zM27 146h1l1-1h-1l-1 1zM197 155l-2 3-4 9c-6 11-11 23-11 28v4l8-14 8-12 3 6 5 8 3 2-1-2 5-13 5-12c0-2-2-3-4-3-1 0-7 13-7 16 0 2 0 2-1 0l-2-11c-1-8-3-10-5-9zM178 165l-12 13c-5 5-12 17-11 18v1c0 2 6-4 9-8 2-2 4-3 7-3l3-1-1 4 1 4h1c1 2 3 0 7-11a616 616 0 0 1 8-24c0-3 0-3-2-3s-4 2-10 10zm0 9-3 3 1-2c3-4 3-4 2-1zM360 160l1 4 1 10c1 7 2 11 2 5 0-3 0-3 1-1l1 3-1-9-5-12zM258 163l-5 3h2l7-3c3-1 5-2 3-2l-7 2zM272 167c0 2 1 3 2 3l1-3-1-3c-1 0-2 1-2 3zM142 173l2 3-1-4c-2-1-2 0-1 1zM299 175c-16 3-19 4-19 7l-1 2c-2 2-1 3 3 3h4l-2 5a172 172 0 0 0-11 23v12c1 0 4-4 16-26l10-18 5-2a22 22 0 0 0 12-10l-17 3zM245 173l1 2c0 2 0 2 1 1 1-2 0-4-2-4v1z"/>
  <path d="m268 178-9 8c-7 8-17 15-20 15-21 2-24 3-24 8 1 3 1 3 4 3 6 0 16-4 19-7l3-3 1 3 2 4 9-2 8-2-9 10-13 14c-2 5-2 5-3 3l-3-2c-3 0-7 4-18 19l-12 13a77 77 0 0 0-16 26h1c-2 4 0 2 8-6s9-9 13-9l4-1v5c0 5 0 5 2 5 4 1 4 0 12-23l6-17 8-7 7-8-4 8a958 958 0 0 1-16 32l-8 16c-2 5-4 18-1 16l10-17 9-17c1-1 7 9 10 18 2 5 6 10 8 10l2 2c1 2 1 2 1 0l-3-12-4-11 9-2c5 0 12-2 16-4l8-2 4-3 5-4c1-1 1-1-2-1l-12 1-16 3c-7 1-13 4-12 6v3c-1 1-1 0-3-4l-2-6 3-2c8-6 9-8 9-12 1-4 0-5-4-3l-4 3-3 2 3-5c5-9 9-16 9-20 1-4 1-4-1-3-4 2-2-1 3-5l15-14c1-3 0-6-2-6h-6l-5 1 4-6 6-7c1-2 1-2-1-1-3 1-3 0 0-4l2-4-7 5zm-48 78-4 5c-1-1 4-8 5-8l-1 3zM53 178l1 1 1-1-1-1-1 1zM144 177l2 1c0 1 1 1 0 0l-2-1zM148 182a333 333 0 0 0-16 35c-4 3-4 0 0-8l4-11c0-2-5-4-6-3l-18 35c-2 5-2 7-1 10l1 5 5-8c4-7 5-8 8-9l4-2-2 4c-2 5-3 11-1 13 1 1 5-6 9-15l2-5 2 4c5 10 16 13 27 7l3-1v4c0 4 0 4-11 13-3 3-4 6-1 8 2 2 2 2 10 0l7-2-9 10c-6 6-11 12-12 15l-11 14-5 5 5-3c3-2 10-8 16-15a325 325 0 0 1 32-30c1-2 2-6 0-7s-7 0-10 1h-3l6-7c5-7 6-8 4-7-2 0-2-2 1-6 2-4 0-2-7 4l-6 5 16-28c1-2 1-1 4 7 3 9 4 10 7 12l3 3c1 1 1 0 1-2-1-3 1-6 6-17l7-17c0-2-2-5-5-5a65 65 0 0 0-11 25l-3-22-3-7-1-2h-2l-3 2-1 3-7 15-6 13-2-3-4-4h-3l1 2 1 3c1 4-1 10-5 13-4 4-9 4-14 1-4-2-4-5-1-11 2-5 6-8 12-9 2-1 4-2 3-3-1-2 4-1 5 1l2 2v-2l-3-5c-3-2-4-2-7-2-6 1-11 3-12 5-3 3-2 0 2-8 4-10 5-15 3-14-1 0-2 0-2-2 0-3-1-2-5 3z"/>
  <path d="m252 179-1 4-1 5 2-4v-5zM110 183c-3 0 5 4 13 7 5 2 8 2 6 0l2-1 3 1 1 1c0 2 4 3 4 2 1-1-6-8-9-8l-3-1h-9l2-1h-10zm17 6h-2v-1l2 1zM238 184c-1 2 0 3 1 2 2 0 3-4 1-4l-2 2zM90 186l-1 18v-5l1-10c2-3 1-6-1-3zM223 186h-2l-1 1h3l1-2-2 1zM274 188h1v-2l-1 2zM81 190h1v-1c-1-1-2 0-1 1zM138 190h2v-1c-2-1-3-1-2 1zM237 190l-8 1c-5 0-7 2-7 6l-1 3h6c8-1 15-4 18-8l3-3h-4l-8 1zM54 193l1 2v-2l-1-3v3zM56 196c-1 1 0 10 1 10v-2l-1-6c1-3 0-4-1-2zM203 197c0 1 2 1 3-1l-1-1-2 2zM175 201v1l1-1v-1l-2 1zM175 205l1 2 1-1c2 0 1-3-1-3l-1 2zM163 210l1 1v-1l-1-1v1zM270 212c-2 2-3 3-1 3l2-3c1-3 1-3-1 0zM58 214l2 4v-3c-2-4-2-5-2-1zM225 215c-14 2-16 3-17 8-1 3 0 3 6 2l24-7 4-3 3-3h-3l-17 3zM329 214v1l2-1v-2l-2 2zM190 214l1 2 1-1-1-2-1 1z"/>
  <path d="M265 216v5h1l2 1c1 1 1 1 1-2 0-5-2-7-4-4zM156 219c-1 2-2 5-1 6l2-3c3-7 2-9-1-3zM163 219l1 3c1 1 1 0 2-2v-3l-1 2h-1l-1-2v2zM188 218l3 3c4 3 4 3 3 1l-1-2-3-1-2-1zM280 223v3l3 1 5-1 4-1-5-2-5-2-2 2zM64 224l2 1 2-1h-4zM263 226c0 1 5 4 6 3l-1-1-1-2-2-1-2 1zM211 230c-17 3-25 5-23 7l-1 3c-1 2-1 2 5 2h6l-3 6c-8 16-12 27-10 32 1 2 1 2 4-4l11-19 9-16c1-3 3-4 7-5a22 22 0 0 0 12-9l-17 2zM192 228l1 2c2 0 5-2 3-2l-2-1-2 1zM282 231c-11 1-14 3-14 6l-1 3c0 2 0 2 6 2 7-1 17-4 20-6l3-4 2-3h-3l-13 2zM137 235l1 4 1-3-1-5-1 4zM33 234c0 2 0 2-1 0-1-1-1-1-1 2l7 21-1-6-2-6c1-6 0-13-1-13l-1 2zM260 236l1 1v-1l-1-2v2zM74 240l2 3 1 1-2-3c0-2-1-2-1-1zM144 253a385 385 0 0 1-14 29c-2 6-2 8-1 11l1 4 18-32c5-11 6-17 4-21l-2-4-6 13zM129 245l-8 1-5 4c-3 3-5 4-13 1l-6 6c-6 9-10 15-11 20l-4 8c-2 4-2 6-1 10l1 5v1l12-17 11-18c1 0-4 16-6 18v13l12-17c15-24 16-25 9-8-3 8-4 11-4 15 0 5 1 6 2 5l24-38c2-4 2-9 0-8l-3-2c0-2-1-2-10 1zM276 245c-7 0-12 2-13 3l-2 5v3l6-1c10-1 19-5 22-10 1-2 2-2-13 0zM347 246h2l-2-1v1zM79 249l5 4-3-4c-2-2-3-2-2 0zM290 249l-1 2-1 2 2-1h2l2 1v-1l-2-2-1-1h-1zM298 260h-2l-4 3-4 3h3c3-1 3-1 3 2v1c0-2 3-1 4 2 1 2 3 4 6 5 2 1 6 4 8 8 3 4 5 5 6 5 1-1 2 0 3 1l2 2 1-2c2-3 2-3 0-6-1-2-3-3-5-2l-1-1c1-1-3-4-4-4h-1l-1-4c-1-2-2-3-4-3-3-1-3-1-3-3 1-1 0-2-1-2v-1c1-2-4-5-6-4zm3 8-1 1v-1l1-1v1zm13 14-5-5 3 2c2 1 3 3 2 3zm4 2h-1l-2-1c0-2 2-1 3 0zM310 262l-1 1 2-1c2-2 1-2-1 0z"/>
  <path d="M183 263c-3 2-3 5-1 5l1-1v-1l2-3c1-3 1-3-2 0zM368 263v1l1-1v-1l-1 1zM178 268l1 1v-1l-1-1v1zM278 270l-14 3-7 3 2 7 3 10c1 3 2 4 5 6l7 6 3 3 3 3 3 4 3 2-2-2c-2-1-2-2-1-2l4 4v1c-1-1-2 0-5 2l-1 2c1-2 7-2 7-1v2l1-1 1-3 2 2 2 2-2-1c-2-1-1 0 1 2l4 6h2l-1-1a354 354 0 0 0 10 5l1-1c1 0 2 0 1-2v-2l8 6 9 6 2 2h1l1-1v3c0 1 0 2 1 1v-2c0-3 2-3 4 0l3 2 5 5c3 3 5 5 7 4 2 0 1 1-2 2-1 1 0 1 1 1h3c-1 1 0 2 1 2 1 1 2 1 1 2l1 1h2c1 2 4 3 3 1-1-1 0-4 1-4h1l-1-1-2 1v1l-1 1-1-2-1-3c-2-1-2-1-1 1h-1l-2-2c1 0 0-2-2-3l-2-4-2-1c-2 0-5-2-9-6l-5-5-1-2v-2c1 1 4 0 3-1h2c3 0 2-1-1-4l-1-3-2-1-3-3-2-3-3-3c0-2-1-2-2-2h-1l-2-3c-3-3-7-9-5-8l-6-7c-7-7-11-9-5-3 2 2 3 3 2 4s-6-6-6-9v-2l-2-1h-1l1 1 1 2-3-2c-2-2-3-5-1-4 2 2 1-1-1-2-1-1-2-2-1-3l1-1-1-1h-1l-3-3c-2 0-3-2-2-2 0-2-3-2-10 0zm18 18c0 1 0 2 2 3l2 2-3-1-2-3-1-1-1-2h2l1 2zm1 35-2-2-2-2 2 1 2 3zm32 14 1 1 2 1 1 2c-4 1-4 1-3-1v-1c-1 1-2 0-3-1v-2l2 2zm22 16v1l-2-1h2zM149 272l2 3v-2c0-2-2-3-2-1zM173 274h1l1-1h-2zM238 274l-1 2-1 2c0 2 2 0 3-2v-3c-1-1-1-1-1 1zM147 275l2 2v-1c-1-2-2-3-2-1z"/>
  <path d="M238 279c-2 2-3 2-3 1v-1c-1 0-7 9-13 21l-3 3v2h1v1c0 2 0 2-1 1h-2c-2 2-2 2-1 3l2 1 1 1 3-3 5-4 1-1 4-4c6-5 6-6 5-7l1-1h2l3-4 2-3v-1l-1-1v-1l-3-5-3 2zm2 2-1 1c1 1 0 1-1 2h-1c1-3 3-5 4-4l-1 1zM330 281l-1 3c3-2 4-4 3-4l-2 1zM205 282l-1 1-1 2c0 2-5 8-6 8l-6 2c-4 2-4 2-9 1-3-1-5-2-6-1h1l2 1v1c1-1 2 0 4 1l2 1 1 1h1l1 1 1 1 3 1h2v-2l2-1c0-1 5-1 5 1l2 1v-2l-1-2-1-1-1-1v-2l7-7c1-3 0-5-2-6l-1 1zM108 290l-7 9c-2 2-5 1-6-2 0-1-1-2-2-1v-3l-1 1-3 4-2 3-2 3-3 1-3 1-1 1c-1-1-11 10-11 12l4-4 6-4c3 1-1 7-9 16a166 166 0 0 0-26 32l4-4 20-20-5 6-5 7-4 4-3 4-4 4-3 4-4 5 9-9 12-11-8 9c-6 8-2 6 6-3 9-10 15-16 19-17l2 2c1 1 1 1 0 0-3-2-2 0 0 3l2 1h1l12 9-5-5-8-9-3-3 4-3c5-5 7-4 3 0l-2 3 4-3c2-3 3-3 4-1l2 1c1-1 1-2-1-2-1-2-1-2 1-4s4-3 6-2l2-2h-1l-1-1c0-1 3-2 4-1h1l1-2c1 1 1 0 1-1v-1l3-2c3-2 4-2 4 0l4-3c3-3 3-3 0-1-4 5-5 2 0-4 2-3 4-4 5-3l1-1 2-3c3-3 3-3 2-7l-2-4-2 3c-2 3-2 3 0 4l2 2-3-1c-1-1-2-2-4-1-2 0-4-2-4-5v-6c1-4-1-2-5 5zm11 8-1 1-1-1v-1l2 1zm-29 2-2 2v-2l3-2-1 2zm32-1-1 1-1-1h1zM215 284l1 1h1l-1-1h-1z"/>
  <path d="M201 286c0 1 0 2 1 1v-2c-1-1-1 0-1 1zM159 286c-2 1-1 2 4 3l7 3 4 1-14-8-1 1zM326 289l-1 2c1 1 2-1 2-2h-1zM138 295l-3 2 3-2 3-3-3 3zM248 294h1v-1h-1zM262 300l-1 2 2-1 1-2v-1l-2 2zM235 301l-2 1 1 2c0 2 2 3 2 2v-4l1-3-2 2zM129 301l5 5c6 4 6 6 1 4l-5-3 3 3 5 6c0 1 3 4 5 4l-1-1c-2-3 0-2 2 0l14 12h3l2 2c0 2-1 1-3-1h-1l2 2v3c-1 1-2 0-7-5a163 163 0 0 1-11-11l2 3 2 3 6 6 7 6 3-2c2-2 3-3 4-2l-2 1 1 2 2 3-2-1h-1l-2 1-3 2c-1 1-1 1 0 0h6l-4 4c-2 0-2 1-1 1l3-1c3-2 3-2 3 1l2 2v2c-1 2-1 2 1 1l1-1h3c-1-1 0-2 1-2h1l1 2v2l-1-1h-1l1 3c1 1 2 0 3-2 2-2 2-3 1-3v-1c2 0 3 2 1 3l1 3c1 2 1 2 1 0-1-1 0-2 1-2 3 1 4 3 4 6l1 2v-9c-1-1 0-1 1-2v-2l3-3 2-3-2 1v-1l4-2h3c0 1-3 5-5 5l-1 1c0 2 3 0 7-4l3-2 1 3c2 1 2 1 1-1l1-3v-1l-1-2 3 1c1 1 1 1 0 0l1-2c1 1 2 0 2-1l-1-3 1-3c2-3 1-4-2-2-2 3-3 1-2-3l3-3 1-1 3-4c2-3 2-3 1-5-2-2-3-1-5 2-1 2-2 3-3 2l4-5 5-5-2-1c-1-1-3 1-8 5-3 5-6 7-7 6v1c1 1 1 1-1 3l-2 3-2 1c-1 0-2 0-1 1l-1 1-1-3h-1l-1 2-9-3-5-2-3-2-2-1c-2 0-6-3-6-5s0-2-1-1c0 2 0 2-3 0l-4-2-1-1-4-2c-3-3-8-6-10-4l1 1 1 1h-6c-1 1-2 1-2-1l-4-2-3 1zm86 4-2 1c0 1-1 1 0 0l2-1zm-73 7 2 1c-1 1-4 0-4-1h2zm34 9h-1c-2-1-3-2-1-2l2 2zm7 5-2-1c-1-1-1-1 0 0l2 1zm-9 15h-1l1-2v2zm1 3c1-1 1-1 0 0s-2 2-3 1v1l1 1v2c-1 1-3 0-2-1l-1-1c-1 1-2 0-2-1s1-2 2-1v-2h1c2 2 3 2 4 1zm5 4-1 1-1-1v-1l2 1z"/>
  <path d="M208 302v1l1 2 2-2c3-3 4-4 1-2h-2c-1-1-1-1-2 1zM205 306h2l-2-1v1zM202 309v1l2-1c2-2 0-2-2 0zM232 310l-3 1c-1-1-2 0-3 1s-1 1 0 0h2l-1 3 2-2 4-4-1 1zM221 317c-1 1-1 1 0 0l2-2-2 2zM218 320v1l1-1v-1l-2 1zM268 328c-6 3-9 5-7 5l2-1 1-1h2l12-8-10 5zM94 327c-1 1 0 2 1 1v-1h-1zM294 332l2 2c1 1 1 1 0 0l-2-2zM336 334c-2 1-2 4-1 3l4 2c2 1 3 2 4 1v-1h-2c-2-1-5-3-5-5 1-1 1-1 0 0zM341 334h1v-1l-1 1zM343 336v1l1-1h-2zM113 337l-1 2-3 2v2h-1l2 3 3 5c0 2 0 2 1 1h2l1-2 2-2c1-1 1-4-1-2l-1-1v-3l-1-2-1-1v-1l-1-2-1 1zm-2 8v1l-2-1 1-1 1 1zM346 337l1 2-1-2c-1-1-1-1 0 0zM319 340l1 2 1 1c2 0 1-1-1-4-2-2-2-2-1 1zM121 345v1h1c0-2-1-2-1-1zM325 346l2 2 1-1h-1l-1-1h-1zM333 348l1 1c1 1 1 0 0 0 0-2-1-2-1-1zM53 350c-1 1-1 1 0 0l2-2-2 2zM339 350l-1 2-1-1-1-1 5 6c8 8 10 9 6 4l-4-6v-3l-1-1h-1l-1-1h-1v1zM359 349l-1 1c-2 0 0 2 2 3h2v-1l-1-2-2-1zM364 354l4 3-1-2c-2-2-3-2-3-1zM185 357h1v-2l-1 2zM179 358l2 4c1 2 2 2 2 1l-2-5c0-2-2-3-2 0zM100 361l4 1 1 1c-1 0 0 2 2 2 2 2 3 2 5 0 2-1 2-1-3-3s-6-2-6-1h-1l-1-2h-1l-2-1 2 3zm10 5-2-1-2-2 2 1 2 2zM368 361l4 2 2-1h-2l-3-2 1-1h1l-2-1c-2 0-2 1-1 3zM365 362c1 2 3 5 4 4l1 2v1c-2 0 0 2 2 3h2v-1h-1l-2-1 2-1-3-4c-4-4-5-5-5-3zm3 3c1 1 1 1 0 0l-2-2 2 2zM344 365l2 2-1-2-3-2 1 2zM373 365l2 2h1v-2l-2-1-2 1zM185 367l2 2-1-2-3-2 1 2zM341 367l2 2-1-2-3-2 1 2zM352 366v3l1 2 3 1 1 2 1 1c1-1-1-5-2-5l-3-1h1v-2l-3-2 1 1zM360 368c1 1 2 2 1 3h5v1l1 1c2-1-4-7-6-7s-2 1-1 2zm4 2v1l-2-2c-1-2-1-2 1-1l1 2zM380 368l2 2-1-2-3-2 1 2zM350 371l2 2-1-2-2-2 1 2zM58 371v1c1 1 3 0 3-1h-3zM346 373l3 3 5 3 4 3-4-4-7-6-3-2 2 3zM359 374h1v-2l-1 2zM376 372l3 2c1 1 1 1 0 0l-2-2h-1zM369 374c-1 0 0 2 2 2l2 1v-2c-1 1-2 0-3-1h-1zM355 375l2 2c1 1 1 1 0 0l-2-2zM338 378l1 2c1 2 4 0 4-2-1-2-4-3-5 0zM364 377l-1 1 1 1h1l10 5c1 0 2 2 0 2l-1 1v2l2-1 2-2-3-3c-2-2-3-3-5-2l-1-1-1-2h-1v1l-1-2v-1l-2 1zm9 6c1 1 1 1 0 0l-2-2 2 2zM376 380l2 2-1-2-3-2 1 2zM61 384c-1 1 0 2 1 1v-2l-1 1z"/>
  <path d="M368 384v1l1 1h2c2 0 1-1-1-2h-2zM362 387l4 2-3-2-4-3 3 3z"/>
</svg>
