<svg xmlns="http://www.w3.org/2000/svg" viewBox="0 0 2500 197">
  <path fill="#0094aa" d="M90 194H0V3h83c40 0 67 19 67 51 0 19-12 35-29 41 22 3 39 23 39 45 0 34-27 54-70 54zM69 46h-9v35h9c18 0 26-6 26-18 0-13-9-17-26-17zm10 70H60v35h19c18 0 24-6 24-18s-8-17-24-17zm258 78-11-35h-55l-11 35h-60L266 3h69l66 191zM298 65l-14 48h29zm239 132c-53 0-92-27-92-91V3h63v110c0 20 11 33 29 33s29-13 29-33V3h64v103c0 64-40 91-93 91zm224 0c-32 0-58-11-76-27l25-40c18 14 33 21 50 21 9 0 16-4 16-11 0-9-8-12-31-19-35-11-52-26-52-57 0-42 32-64 78-64 25 0 49 9 62 19l-25 42c-13-9-25-14-39-14-12 0-16 5-16 10 0 6 4 10 29 17 35 10 53 24 53 59 0 39-28 64-74 64zm227 0a95 95 0 0 1-100-98c0-57 43-99 101-99 31 0 51 13 68 27l-32 43c-11-11-21-18-37-18-22 0-37 18-37 46s15 47 40 47c14 0 28-6 39-17l30 42c-18 16-39 27-72 27zm245-3v-67h-48v67h-64V3h64v70h48V3h64v191zm423 0V3h61v142h63v49zm261 3c-59 0-102-41-102-98s43-99 103-99 102 41 102 98-43 99-103 99zm0-146c-23 0-40 20-40 47 0 28 18 48 41 48s40-20 40-47c0-28-17-48-41-48zm299 143v-93l-30 55h-28l-31-55v93h-60V3h62l43 76 41-76h67v191zm214 0h-90V3h84c40 0 66 19 66 51 0 19-12 35-29 41 22 3 39 23 39 45 0 34-27 54-70 54zm-20-148h-10v35h10c17 0 26-6 26-18 0-13-10-17-27-17zm9 70h-19v35h19c18 0 24-6 24-18 1-12-8-17-24-17zm-974-48h62v62h-62z"/>
  <path fill="#7ec49f" d="M1446 3h61v65h-61zm0 127h61v64h-61z"/>
  <path fill="#62c6e9" d="M1381 68h65v62h-65zm126 0h65v62h-65z"/>
</svg>
