<svg xmlns="http://www.w3.org/2000/svg" version="1.0" viewBox="0 0 1200 405">
  <path d="M901 10c-12 3-21 10-24 20-2 6-1 19 1 23 2 3 2 4-2 9-5 8-6 12-6 21 0 22 16 36 39 36 17 0 32-9 37-22 4-12 2-24-5-35l-3-5 2-7c2-8 3-13 0-20-4-14-23-23-39-20zm14 25 2 6c0 9-9 12-15 6-3-3-4-6-2-10 2-5 11-7 15-2zm2 40c8 8 0 21-11 18-5-1-7-4-7-10 0-5 2-9 5-10 4-1 10 0 13 2zM985 10c-8 1-17 6-22 10-5 5-9 13-10 20 0 6 2 17 4 22 4 8 13 15 22 18l4 2-12 16-6 7 6 6c10 9 16 9 26-2 13-13 29-39 32-53 2-9 2-20-1-26-7-14-24-23-43-20zm12 26c4 2 5 5 5 10 0 4-2 8-7 10-7 2-14-3-14-10 0-9 8-14 16-10zM1101 11c-21 4-32 20-28 41 2 9 5 15 11 20 4 4 6 5 16 9l2 1-2 3-9 12-7 9 6 5c10 10 16 9 27-2 7-7 18-23 24-34 12-25 11-43-1-55-6-5-11-8-19-9-8-2-12-2-20 0zm15 26c5 2 7 10 3 15-6 8-19 4-19-6 0-5 1-8 5-9 3-2 7-2 11-1zM10 231v166h84l94-1c26-3 47-13 61-29 22-26 27-80 11-111-7-14-19-26-34-35l-8-4 7-5c15-9 24-23 29-41 2-7 2-11 2-26s0-19-2-25c-8-29-26-44-62-52-9-2-13-2-96-3H10v166zm132-98c14 3 20 10 22 24 2 8 0 18-3 25-2 5-9 10-14 12l-21 2h-18v-64h15l19 1zm9 127c7 2 13 6 16 11 3 6 5 18 5 26-2 15-6 23-17 28l-6 3-21 1h-20v-71h19c15 0 20 0 24 2zM290 216v151l3 5c4 12 13 19 25 23 9 3 33 2 43-1 8-2 15-7 20-14 6-9 6-9 7-62v-48h32c34 0 42-1 49-5 6-4 9-8 13-14l3-6v-54h-97v-48h41c37 0 42-1 46-2 6-3 11-7 14-12 5-8 6-14 6-40V65H290v151zM520 231v166h33c31-1 33-1 39-3 12-4 19-12 23-24 2-6 2-9 2-78l1-71a1090 1090 0 0 1 64 74l33-38 32-37v74l1 74 2 6c3 7 10 15 17 18 8 3 17 5 29 5 29 0 45-11 48-34l1-152V65h-28c-31 0-38 1-48 6-4 1-9 5-12 8a1249 1249 0 0 0-75 87l-36-42-39-46c-7-5-14-9-23-11-6-2-11-2-36-2h-28v166zM1046 86c-4 1-8 5-9 10-2 4-1 13 2 16 4 6 13 8 20 4 4-2 8-9 8-14 0-4-4-12-7-14s-9-3-14-2zM870 157c-2 1-2 3-2 4 1 3 1 3 9 4h8v21l1 23 4 1c5-1 6-3 6-25v-20h8c7 0 7 0 8-3 1-2 1-2-1-4s-4-2-21-2l-20 1zM918 158v51h8l1-14c1-12 1-12 3-15 4-3 7-3 10 0 2 2 2 3 2 14 0 13 1 16 5 16 5 0 5-1 5-16 0-16-1-18-5-21-4-4-10-4-15-1l-5 3v-8l-1-10c-2-2-7-1-8 1zM972 171c-8 3-12 10-12 19s5 16 11 19h18c4-2 8-7 8-9-1-4-5-4-9 0-7 6-15 4-17-4l-1-3h11l13-1c3-1 4-5 3-9-3-10-14-16-25-12zm11 7c3 2 4 4 4 7 0 2-1 2-8 2-8 0-8 0-8-2 0-3 2-5 5-7h7zM875 242c-2 1-2 3-2 25 0 24 0 25 2 26 4 2 30 1 34-1 9-5 11-17 3-24l-4-2 3-4c6-6 3-16-4-20h-32zm26 9c3 2 2 7 0 9l-9 3h-8v-14h8l9 2zm-3 20c5 1 7 3 7 7 0 5-3 7-13 7h-8v-15h5l9 1zM1011 242l-1 4c0 4 4 6 8 3 2-1 3-3 1-6-1-2-6-3-8-1zM926 256l-1 16c0 12 0 15 2 18 3 5 14 7 20 2l3-2c2 3 3 5 5 5 5 0 5-1 5-20s0-20-5-20c-4 0-5 2-5 15 0 11 0 11-3 14-1 2-4 3-5 3-6 0-7-3-7-17l-1-13c-1-2-6-3-8-1zM976 256c-9 4-10 15-2 19l9 3c6 2 9 4 9 6s-3 4-8 4c-3 0-4 0-7-3-3-5-5-5-7-4-3 1-3 6 0 9 8 8 26 6 30-3 2-3 2-4 1-7-1-4-4-6-11-8-10-3-12-5-12-7s1-2 5-3c4 0 5 0 7 3l6 3c6 0 4-8-2-11-5-2-14-2-18-1zM1011 256l-1 19c0 18 1 20 5 20s5-3 5-20l-1-18c-1-2-6-3-8-1zM1030 258l-1 18 2 18h7c1-2 2-3 2-14 1-13 1-15 6-17h4c4 1 5 6 5 19 0 10 1 13 5 13s5-4 5-16c0-14-1-18-5-21-4-4-12-4-17-1l-4 3-1-3c-1-3-7-3-8 1zM1082 257c-15 8-12 33 4 37 8 2 17 0 21-5 3-2 2-7 0-8l-7 3c-5 5-10 5-14 1l-3-5v-3h12c15 0 16 0 15-8-1-5-3-8-7-11-5-4-16-4-21-1zm14 6 4 7c0 2-1 2-8 2-10-1-11-2-7-7 3-3 7-4 11-2zM1122 257c-4 2-5 5-5 10 0 4 3 7 12 10 8 3 11 5 11 7s-3 4-7 4c-3 0-5-1-8-4-4-4-4-4-7-3-5 2 0 11 8 13 5 2 14 1 18-1s6-7 6-11c0-5-4-8-14-11-10-4-10-4-10-7 2-4 10-3 14 2 2 2 5 3 7 1 3-3 0-9-6-11-5-2-15-1-19 1zM1162 257l-5 6v6c2 4 5 6 13 8 7 3 10 5 10 7 0 3-3 4-7 4-3 0-5-1-8-4-4-4-6-5-8-3s-1 6 2 9c7 7 25 6 29-2 5-8 1-13-12-17-8-3-10-4-10-6l3-3c3-1 7 0 11 3 3 3 5 4 7 2 3-3 0-9-6-11-5-2-15-1-19 1zM883 326c-6 2-8 4-9 7-4 7-1 15 5 19l11 4c10 2 12 4 12 8-1 4-5 8-10 7-5 0-8-2-11-7-4-9-12-5-9 4 4 14 30 16 38 4 3-4 4-12 2-16-3-4-7-6-18-10-8-2-10-3-11-6-1-2-1-2 1-5l7-2c4 0 5 1 9 5 5 6 7 6 10 3v-6c-2-6-9-10-19-10l-8 1zM1017 326l-1 4c0 5 6 7 9 3v-5c-2-3-6-4-8-2zM925 328c-1 1-2 3-2 7s0 5-2 6c-5 1-5 5 0 6 2 1 2 1 2 14 1 16 1 18 8 19 6 0 12-2 13-4 0-3-2-5-5-5-5 1-6 0-6-12v-11l4-1c3 0 3-1 3-3 1-2 0-3-3-3-4-1-4-1-4-6 0-8-4-11-8-7zM992 328l-1 7-1 5-3 2c-2 2-1 5 2 5 2 0 2 1 2 12l1 15c1 3 5 5 11 5 5 0 9-2 9-5-1-2-1-3-5-3-6 0-6-1-6-14v-9l3-1c6-1 6-7 0-7-3 0-3 0-3-6l-1-7c-2-2-7-1-8 1zM959 340l-7 2c-3 2-6 7-4 10 1 3 4 2 8-2 3-2 4-3 8-3 5 0 7 1 7 5 0 2-1 2-14 5-8 2-12 5-12 11 0 5 3 8 8 11 4 2 8 1 14-2l5-2 3 2c3 3 4 3 6 2s2-3 1-16l-2-17c-2-5-13-8-21-6zm12 25c-2 7-10 10-14 6-2-2-2-3-1-5 2-2 9-5 13-5 3 0 3 0 2 4zM1018 341c-3 2-3 35 0 37 2 2 3 2 6 1 1-2 2-3 2-19l-1-19c-3-2-6-2-7-1zM1050 340h-4c-11 3-16 19-10 30 4 9 17 12 28 7 9-6 12-23 4-32-4-4-14-7-19-6zm9 9c5 5 5 17-1 21-8 6-17-4-14-15 2-7 9-10 15-6zM1082 341c-2 1-2 4-2 18l1 19h8l1-14c1-12 1-12 3-15 4-3 7-3 10 1 2 2 2 4 2 14 0 12 1 14 4 15 1 1 3 0 4-1 2-1 2-2 2-15 0-16-1-18-5-21-5-4-10-4-20 2l-1-1c0-2-3-4-5-4l-2 2z"/>
</svg>
