<svg xmlns="http://www.w3.org/2000/svg" version="1.0" viewBox="0 0 800 388">
  <path d="M464 89c-3 9-12 21-24 31l-19 12c-40 23-51 33-52 52 0 9 2 20 6 24l2 2v-3c0-9 6-19 15-27l28-15c30-15 41-23 48-37 4-10 5-24 1-35-3-10-4-10-5-5zM336 128c-3 2-8 7-8 9 0 1 1 1 3-1 3-1 5-1 10 1 7 2 11 11 14 28 1 10 4 20 5 20l2-6c1-8 6-17 11-24l5-5-3-3c-2-2-5-6-9-8l-5-4 4-2c3 0 5-2 6-3 2-2 2-2-3-2h-32z"/>
  <path d="m450 158-26 14c-31 15-38 21-39 33l1 11 2 4 1-3c3-9 10-14 25-16l12-3c4-1 11-6 11-8l-9-1h-9l9-5c16-7 22-10 25-18 3-5 4-12 2-12l-6 4zM272 264c-13 5-18 17-13 29 5 10 22 16 36 11 5-1 12-6 12-8l-3-2c-2-1-3-1-5 2-8 5-23 5-30-1-8-7-6-20 5-25 6-3 19-2 25 3 3 2 4 2 6 1l3-1-4-4c-8-7-21-9-32-5zM681 264c-10 2-14 10-9 16 3 4 6 5 21 6l12 2c5 1 4 8-1 10-6 3-18 2-26-1-6-3-6-3-8-1-2 3-1 4 4 6 8 4 25 5 33 2 5-2 9-7 9-12 0-8-6-11-23-13l-12-1c-3-1-5-4-3-7 3-4 18-4 27 0 5 2 5 2 7-1 1-2 1-2-3-4-8-4-19-5-29-3zM84 284v21h18c20 0 24-1 28-5s3-10-1-14l-3-3 3-2c4-5 2-12-3-16-2-1-5-2-22-2H84v21zm38-13c2 1 2 2 2 4-1 5-3 6-19 6l-14-1-1-4c0-7-1-7 15-7 12 0 15 0 17 2zm2 18c3 2 3 4 0 7-2 2-2 2-18 2H91l-1-5v-6h16c15 0 16 0 18 2zM146 264v21l1 20h38v-6h-32v-36h-3l-4 1zM208 283l-11 21 3 1c3 0 4 0 5-3 3-6 3-6 18-6h14l2 5c2 4 3 4 6 4h4l-5-9-11-21-6-12h-9l-10 20zm21-3 4 9h-21l3-6a307 307 0 0 0 8-13l5 10zM321 284v21h7v-13l6-4 6-5 7 8 11 11c2 3 3 3 7 3h4l-12-13-11-13 11-8 10-7-5-1c-5 0-5 0-21 12l-12 9-1-10v-11h-7v21zM380 284v21h18c20 0 24-1 28-5s4-10-1-14l-3-3 3-2c3-5 2-12-3-16-2-1-5-2-22-2h-20v21zm38-13c2 1 2 2 2 4-1 5-3 6-19 6h-14v-12h14c12 0 15 0 17 2zm2 18c3 3 2 7-2 9l-31 1v-12h16c14 0 15 0 17 2zM442 264v21l1 20h43v-6h-36v-12l12-1h12v-6h-25v-5l1-6h34v-6h-20l-22 1zM500 284v21h7v-16h21l5 7 5 8 5 1h4l-5-8-5-8 3-2c6-2 9-12 5-18-4-5-7-6-27-6h-18v21zm38-12c3 3 3 6 0 9l-17 2h-14v-14h15c14 0 14 1 16 3zM560 284l1 20 3 1h3v-16h22l5 8c5 7 6 7 10 8h4l-5-8-6-8 3-1 5-4c3-3 3-11 0-15-4-5-7-6-27-6h-18v21zm37-14c3 2 3 2 3 6-1 6-2 7-19 7h-13l-1-6v-7c1-2 25-2 30 1zM620 271l12 13 4 5v16h7v-17l11-12 11-12-4-1c-3 0-4 0-13 10l-9 9-7-7-9-10c-1-1-2-2-6-2h-4l7 8z"/>
</svg>
