<svg xmlns="http://www.w3.org/2000/svg" viewBox="0 0 806 329">
  <g fill="#3a8758">
    <path d="M688 4c-4-3-8-2-11-1l-6-1c-4-2-7-3-11 0l-2 4v7l31-8a9 9 0 0 0-1-1zm-36 12 1 1h4a3 3 0 0 0 1-2v-2l-6 2v1zm-13 24-2 2c-2 3-2 6 0 9l6 4 2 4c0 2 1 5 4 7 2 2 4 2 6 2a9 9 0 0 0 2 0l-12-32-6 4zm28-9a3 3 0 0 0-1-1l-3 1v4l1 1 1 1 2-6zm-4 33 1-3 3-6 4-3c4-3 3-7 2-9l-2-2-6-4-8 31 6-4zM667 31l7 3c2 2 5 1 8 0 2-2 2-4 2-6 1-3 1-6 3-8a11 11 0 0 0 2-2c3-4 3-8 1-12a10 10 0 0 0-1-1l-22 26zM651 7l-1-4c-3-3-5-3-7-3-3 1-7 4-11 3-3-2-7-1-10 1a10 10 0 0 0-3 5l33 6-1-8zm155 106-2-1h-34a3 3 0 0 0-2 0l-1 1-1 4a2 2 0 0 1-1 1h-3l-8-6-18-3c-5 1-10 1-14 3a48 48 0 0 0-12 8 47 47 0 0 0-8 11 48 48 0 0 0-6 12 62 62 0 0 0-1 9 64 64 0 0 0 2 26 47 47 0 0 0 3 6l3 6 3 3 3 3 11 6c10 3 21 2 30-2l7-5c2-2 4-2 6-1a3 3 0 0 1 1 2v25c0 4-1 8-3 11a20 20 0 0 1-4 5 20 20 0 0 1-6 4c-6 2-13 2-19 0l-6-4a23 23 0 0 1-8-11 24 24 0 0 1-1-7l-11 1a42 42 0 0 1-2 7 41 41 0 0 1-4 7l-5 6-5 5a81 81 0 0 1-6 5 76 76 0 0 1-6 4 98 98 0 0 1-25 10 183 183 0 0 1-23 4 177 177 0 0 1-23 1 209 209 0 0 1-42-4 429 429 0 0 1-18-4l-17-5a1081 1081 0 0 1-19-5 3284 3284 0 0 1-25-8l-24-7a578 578 0 0 0-52-13 331 331 0 0 0-31-4 412 412 0 0 0-65 1 291 291 0 0 0-120 48 414 414 0 0 0-25 17l82 43a188 188 0 0 1 12-11 186 186 0 0 1 13-10 193 193 0 0 1 14-9 224 224 0 0 1 63-25l15-2a275 275 0 0 1 15-1 184 184 0 0 1 30 1l28 4 30 5 22 4a3754 3754 0 0 0 21 4 646 646 0 0 0 71 8l18-1a187 187 0 0 0 60-16c7-3 13-7 19-12a104 104 0 0 0 17-16 107 107 0 0 0 13-19 44 44 0 0 0 13 19 36 36 0 0 0 11 6 52 52 0 0 0 13 3c8 0 16-1 24-4 3-2 7-4 9-7a34 34 0 0 0 7-9 35 35 0 0 0 4-10l1-11v-94a4 4 0 0 1 3-4l6-2h1l2-2v-3a2 2 0 0 0 0-1zm-43 56-4 5-5 5a21 21 0 0 1-8 3h-5l-7-1a20 20 0 0 1-3-2 21 21 0 0 1-2-3c-6-6-7-12-6-19a55 55 0 0 1 2-13l2-5a23 23 0 0 1 5-6c6-5 12-6 19-4a20 20 0 0 1 6 3 16 16 0 0 1 4 4 16 16 0 0 1 3 10v16a20 20 0 0 1-1 7zm-547 52v-4c-2-2-3-2-5-1a146 146 0 0 1-22 16 86 86 0 0 1-16 6 86 86 0 0 1-16 4 89 89 0 0 1-36-3 99 99 0 0 1-19-7 103 103 0 0 1-16-10 95 95 0 0 1-13-13 95 95 0 0 1-11-14c-6-11-10-22-12-32a107 107 0 0 1-2-16 106 106 0 0 1 4-32 84 84 0 0 1 14-27 80 80 0 0 1 10-10 84 84 0 0 1 11-9l12-6a69 69 0 0 1 28-5 73 73 0 0 1 25 5 61 61 0 0 1 10 5 61 61 0 0 1 9 8l54-76H63A193 193 0 0 0 8 81c-8 23-10 46-6 70a141 141 0 0 0 2 11 126 126 0 0 0 23 48 127 127 0 0 0 19 19 141 141 0 0 0 28 19 121 121 0 0 0 20 7 121 121 0 0 0 40 5 120 120 0 0 0 31-6 120 120 0 0 0 27-13 120 120 0 0 0 24-20zM646 35v-4h-5l4 5 1-1z"/>
    <path d="m223 110-8 1c-4 1-8 3-12 7-1 1-1 3 1 5l2 1c3-1 6-3 9-1a8 8 0 0 1 2 6v26a158 158 0 0 1-8 8 150 150 0 0 1-8 7 202 202 0 0 1-8 5l-2 2c-3 1-5 2-8 1l-2-1-2-4v-49l1-3a4 4 0 0 1 3-1l4-1 2-2 1-4-2-2a3 3 0 0 0-1-1h-27l-3 1a3 3 0 0 0-1 2l-2 4a3 3 0 0 1 0 1h-5c-6-5-12-7-19-8s-14 0-21 3a43 43 0 0 0-13 8 46 46 0 0 0-5 5 46 46 0 0 0-4 6c-4 7-5 14-6 22a67 67 0 0 0 2 18 54 54 0 0 0 2 5 35 35 0 0 0 4 8l9 9c11 10 23 11 35 9a16 16 0 0 0 6-3l6-6c1-2 3-2 6-1a4 4 0 0 1 1 2 113 113 0 0 0 2 4 9 9 0 0 0 2 3 9 9 0 0 0 6 2 20 20 0 0 0 7 0l4-2 12-7a90 90 0 0 0 6-4 934 934 0 0 0 26-22v33l1 1 1 1h35l2-1v-5l-1-2a3 3 0 0 0-1-1h-4a5 5 0 0 1-2-1c-2-1-2-3-2-4v-51a14 14 0 0 1 1-6 10 10 0 0 1 1-2l6-3a3 3 0 0 1 2 1c1 1 2 3 0 5a10 10 0 0 0-1 7 12 12 0 0 0 4 7l3 2a18 18 0 0 0 18-2l3-4c3-4 4-9 4-14a20 20 0 0 0-6-14 25 25 0 0 0-5-3c-5-3-11-4-17-3a21 21 0 0 0-5 2c-4 2-7 6-10 9h-4l-2-3a15 15 0 0 0-3-4c-2-2-4-3-7-3a21 21 0 0 0-2-1 18 18 0 0 0-3 0zm-74 59a19 19 0 0 1-8 9 20 20 0 0 1-8 3 22 22 0 0 1-4 1l-10-4a20 20 0 0 1-3-2c-5-6-5-12-5-18a52 52 0 0 1 2-13l2-4a22 22 0 0 1 4-6c6-5 12-6 19-4l5 3a16 16 0 0 1 4 4 15 15 0 0 1 3 9v15a19 19 0 0 1-1 7zM622 20a7 7 0 0 1 2 2c2 4 0 8 4 12 2 1 4 2 7 1l6-4-22-22a9 9 0 0 0-1 4l4 7zM418 53l2 2h4a4 4 0 0 1 4 3v2l1 119c0 5 1 10 4 15a25 25 0 0 0 6 5 25 25 0 0 0 7 4l8 1h24a26 26 0 0 0 9-2 26 26 0 0 0 8-5 26 26 0 0 0 6-7c2-4 3-9 3-13v-15a127 127 0 0 0 21 8 48 48 0 0 0 11 21 40 40 0 0 0 6 6 40 40 0 0 0 7 5 41 41 0 0 0 8 3l9 1c5 1 12 0 17-1a38 38 0 0 0 6-2 45 45 0 0 0 5-3 44 44 0 0 0 10-8 44 44 0 0 0 7-10c1-2 1-3-1-4h-4l-6 6-6 3c-5 3-10 4-14 3a30 30 0 0 1-12-2 24 24 0 0 1-10-10 24 24 0 0 1-2-7 84 84 0 0 0 14-3 55 55 0 0 0 27-18l3-4a23 23 0 0 0 2-9l14-9h8a7 7 0 0 1 3 2l1 4v70h41v-5a3 3 0 0 0 0-1l-2-2h-5a5 5 0 0 1-3-2 5 5 0 0 1-1-4v-55c0-2 1-3 3-4 3-2 6-1 8 0l9 5 5 1c3 0 7-2 10-4a29 29 0 0 0 7-10 36 36 0 0 0 2-9 35 35 0 0 0-2-19 27 27 0 0 0-13-13c-2-1-4-1-5 1s0 4 1 5l5 5c3 2 4 5 4 7 1 3 1 6-2 9-3 2-5 2-7 1a31 31 0 0 1-6-4 25 25 0 0 0-6-4c-4-1-8 0-11 2a12 12 0 0 0-4 7 27 27 0 0 0 0 9 3 3 0 0 1-1 3c-2 2-4 1-5 0a3 3 0 0 1-1-1c0-3-2-7-4-9a14 14 0 0 0-6-4c-7-1-14 0-20 4l-18 12a26 26 0 0 0-4-5 26 26 0 0 0-11-8 45 45 0 0 0-39 5l-7 5a43 43 0 0 0-6 7 47 47 0 0 0-4 7c-2 2-2 5-3 7a60 60 0 0 0-3 15 61 61 0 0 1-20-9v-38h-33v25c0 2 1 5 3 7l11 8v28a9 9 0 0 1-2 5 9 9 0 0 1-2 2c-4 3-9 3-13 3-2-1-5-1-6-3a11 11 0 0 1-4-5V47h-40v6zm137 91a41 41 0 0 1 3-7 18 18 0 0 1 10-10 18 18 0 0 1 8 0l6 2a8 8 0 0 1 2 3v3c1 4 0 7-2 11a28 28 0 0 1-12 10 42 42 0 0 1-5 2 44 44 0 0 1-12 2 41 41 0 0 1 2-16zM284 53l3 2h4l3 1 1 3v116l1 9a29 29 0 0 0 11 14 29 29 0 0 0 8 4l9 2h60a31 31 0 0 0 25-12 25 25 0 0 0 4-7 26 26 0 0 0-3-21l-5-6a24 24 0 0 0-6-4l-21-8-3-3c-2-4-2-7 1-10l2-1c4-3 8-3 13-2l6 2c3 1 6 2 9 5l12-26h-46c-5 0-10 1-14 4a21 21 0 0 0-5 4l-3 6a27 27 0 0 0-3 12c0 3 1 7 3 10l5 5a41 41 0 0 0 8 5l16 9a8 8 0 0 1 4 4c1 4 1 9-1 12a11 11 0 0 1-3 3c-5 4-11 4-16 3l-11-5a22 22 0 0 1-4-6 22 22 0 0 1-3-6 11 11 0 0 0-6 1 12 12 0 0 0-3 3l1 1c4 4 4 8 0 12a8 8 0 0 1-2 1c-3 1-6 1-8-2a8 8 0 0 1-2-2l-1-7V47h-40v6z"/>
  </g>
</svg>
