<svg xmlns="http://www.w3.org/2000/svg" version="1.0" viewBox="0 0 860 729">
  <path d="M424 43c-21 10-17 44 6 44l8-1c6-4 8-12 4-17l-4-2 1-2c2 0 3-2 4-3 4-6 10 1 10 10-1 6-4 10-10 14-3 2-5 2-12 2-8 0-9 1-3 3 23 7 43-21 28-39-6-7-15-9-23-5-4 2-6 4-6 9s1 8 5 9c2 1 2 2 1 2l-4 3c-3 4-5 4-8 0-2-2-2-3-2-8s0-6 3-10c5-7 15-10 23-8 5 1 5 0 0-2s-15-1-21 1z"/>
  <path d="M396 61c-1 0-3 2-3 4l-2 3h-11c-39 0-66 21-71 55l-1 67v60h-3c-8 1-13 8-13 16 0 3 0 4-4 5-6 4-7 7-8 21l1 32c0 24 1 25 8 29l4 4 6 15 2 2-8 9-9 11c-2 2-2 2 2 2 3 1 5 1 11 7 36 32 73 48 120 52a199 199 0 0 0 148-48c12-9 13-10 19-10 1-1 1-2-7-11l-9-10 4-5 4-10c1-5 1-6 5-8 5-2 8-7 8-13l1-32c-1-27-1-28-3-31l-5-6c-4-1-4-2-4-7-1-6-4-10-9-13l-5-2v-63c-1-71-1-70-8-84-5-9-14-19-22-24-11-7-26-10-43-10-10 0-10 0-12-3s-5-6-7-6-2 1-2 10v11l3-1 5-5c2-3 3-3 8-3 17 0 35 4 46 10 7 4 17 16 21 23 7 13 6 10 7 81v65h-3l-7 4c-4 4-4 4-4 13v9l-4 1c-3 1-5 2-6 4-2 3-2 5-2 28v25h-11c-12 1-18 3-20 8-1 2-2 3-7 3-7 1-11 3-13 8-1 4-2 4-7 4-6 0-7 1-7 3s1 2 9 3h9v-4l3-6c2-2 3-2 22-2h20l2 3 2 4c0 2 1 2 6 2s7-1 8-2c2-2 0-4-4-4s-5 0-6-3c-3-5-7-6-20-6l-11-1 2-2c2-2 6-2 22-2 20 0 22-1 19-5l-1-13v-12h5c4 0 6-1 6-2 0-3-2-4-7-4h-4v-9h5c4 0 6-1 6-2 0-3-2-4-7-4h-4v-14c0-12 1-14 2-16 4-5 14-4 17 0l2 9v7h3c2 1 5 2 6 4l2 2 1 29c0 31 0 34-5 38-4 3-10 3-14-1-2-2-2-3-2-11 0-7 0-9 2-10 2-3 3-2 3 2s1 4 3 4l2 1 1-22c0-20 0-23-2-24-3-2-4 0-4 16v15l-3 1c-6 3-7 6-8 15 0 13 3 20 11 22 3 0 3 1 2 3-1 6-6 12-11 15-7 4-20 5-26 3s-13-9-15-14c-1-2-2-3-4-3-3 0-3 1-1 6l2 4h-29c-26 0-29 0-29 2-2 3 0 4 18 4 15 0 16 0 15 2-1 3-3 4-8 4-4 0-5 1-6 2-1 2 2 4 6 4 8 0 14-4 14-10 0-2 0-2 12-2s12 0 17 3l5 3-6 5c-20 12-40 21-64 24-39 7-81-2-113-23l-8-5 6-4 5-3h12l11 1 1 3c2 5 6 7 12 8l7-1c2-3 0-5-5-5s-9-2-9-5l16-1 18-1 1-3c-1-2-5-2-30-2h-29l2-4c2-5 2-6-2-6l-4 4c-2 4-7 9-11 12-3 1-6 2-14 2-9 0-10-1-15-4s-10-9-11-15c-1-2-1-3 2-3 8-2 11-9 11-22-1-9-2-12-8-15l-3-1v-15c0-12 0-15-2-16h-3l-1 23v22l3 1c2 0 2-1 3-5 0-4 1-5 3-2 2 1 2 4 2 10 0 8 0 9-3 12s-10 3-13 0c-5-3-5-7-5-38v-29l3-2c1-2 4-3 6-4h3v-7c0-6 0-7 2-10 4-3 12-3 16 0 2 3 2 3 3 17v14h-4c-5 0-7 1-7 4 0 1 2 2 5 2h5l1 5v4h-4c-5 0-7 1-7 4 0 1 2 2 5 2h5l1 12c0 9 0 12-2 13v3c1 2 4 2 20 2s20 0 22 2l2 2-11 1c-13 0-17 1-20 6-1 3-2 3-6 3s-6 2-4 4c1 1 3 2 8 2s6 0 6-2l2-4 2-3h20c19 0 20 0 22 2l2 6 1 4h9c8-1 8-1 8-3s0-3-6-3-6 0-8-4c-2-5-7-8-13-8-4 0-5-1-7-3-3-6-7-7-19-8h-11v-25c0-23 0-25-2-28-1-2-3-3-6-4l-4-1v-8c0-9-2-13-8-17l-4-2v-62c0-68 0-70 6-82 10-19 27-30 52-33h22c0 2 5 7 8 7 2 0 2 0 2-10 0-9 0-10-2-10l-4 2zm-68 222c2 1 3 7 3 29v22h-7v-25l1-26h3zm218 25v26h-7v-22l1-26c1-3 3-4 5-4l1 26zm-207 81a160 160 0 0 0 126 27c22-5 43-13 62-26 9-6 14-8 12-5a189 189 0 0 1-74 34c-17 3-45 3-62 0-22-4-44-13-63-26-10-7-12-9-9-9l8 5zm-12 3-2 4-2 3 2-1 6-1 6 2-5 2h-4l-1 7c0 6 0 7-1 6-2 0-2-2-2-6 0-7-1-8-5-4-2 3-5 4-5 2s10-16 12-15l1 1zm225 5-2 1c-5-2-8 4-4 8 3 3 8 2 8-2 0-2-1-3-3-1h-1c-1-1 3-4 4-4l3 3c1 3 1 3-1 5-6 5-11 4-14-1-1-4-1-5 1-8 3-4 9-4 9-1zm-11 11c2 5 3 6 2 7s-2 1-6-1l-5-3 2 4c1 4 2 5 1 6l-2-1-3-6c-5-8-4-9 5-4 5 2 5 2 2-3l-2-4c0-3 2-1 6 5zm-198-2c4 4 3 10-2 12-4 3-6 2-8-1-4-3-4-6 0-10 3-4 7-4 10-1zm182 5-3 2c-3 1-4 2-3 3 0 2 0 2 4 0l4-1c1 1-2 4-4 4-2 1-2 2-1 4h4c3-2 5-2 5-1l-9 5c-1 0-7-10-7-12l4-4c4-2 6-2 6 0zm-169 1c4 3 5 6 2 8l-2 3c1 1-1 6-2 5-2 0-2-1-1-3s1-3-1-4c-2-2-3-1-5 2-1 2-1 2-2 1s-1-3 2-8l4-6 5 2zm12 6c5 2 7 5 3 3-7-2-9 1-3 3l3 3h-4c-4-2-5-2-5 1l4 3c3 1 4 3 2 3l-10-4 6-14 4 2zm143-1c3 1 2 3-1 3l-4 1c0 2 0 2 4 2 4-1 7 0 7 3s-3 6-6 6c-4 0-7-2-5-4l3 1c1 2 5 0 5-2l-4-1c-5 0-7-1-7-5 0-1 1-3 3-3 3-2 3-2 5-1zm-9 11c3 8 2 9-5 5l-5-4 1 5c3 6 0 6-2 0-5-11-3-13 4-7l5 4-1-4c-2-5-2-6-1-6s3 3 4 7zm-120-5c2 2 1 16 0 16l-2-3c0-3-4-4-7-2-1 2-2 2-2 1-1-1 8-13 9-13l2 1zm95 3c3 3 1 5-2 3-2-2-5-3-7 0-2 2-2 7 0 10 2 4 9 2 9-2 0-1-1-2-2-1l-3-1 1-2 4-1c3 0 3 0 4 3l1 5c0 2 0 2-2 2-1-1-2 0-3 1-2 1-8 1-11-1-5-3-5-12 0-16 3-3 8-3 11 0zm-83 6 2 5 1-4 3-5v3c-2 13-4 15-7 5l-3-5-1 6c-1 3-1 4-2 3-1 0-2-1-1-3a345 345 0 0 0 4-12c1 0 3 3 4 7zm29-4c2 1 3 6 1 8-2 1-2 2-1 2l1 5c0 3 0 4-2 4-1 0-2-2-2-5s-1-4-4-4c-4 0-4 0-4 3s0 4-2 4-2 0-2-6l2-9v-4h6l7 2zm63 2 2 7v3c-2 1-2-1-4-6-2-8-2-8 0-8l2 4zm-47 3c0 2-1 2-4 1-4 0-4 0-4 2 0 1 1 2 4 2l4 1-4 2c-3 0-4 0-4 2s1 2 4 2l4 1-5 1h-6v-15h6l5 1zm14 1 2 6c0 5-3 7-9 7-4 0-4 0-4-3l-1-7v-5h5c4 0 6 0 7 2z"/>
  <path d="M335 408c-2 3-3 6 0 8 2 2 6 0 7-3v-5c-3-3-4-3-7 0zM351 415c-1 2 0 4 3 4 3-1 3-3 0-4-3-2-3-2-4 0zM378 428c-2 3-2 3 0 3 2 1 2 0 2-2 0-4 0-4-2-1zM413 432c0 3 0 3 4 3s4 0 4-2-1-3-3-3c-5-1-5-1-5 2zM445 439l1 6 2-1c6-1 5-10-1-10h-3l1 5zM404 60l1 1 1-1-1-1-1 1zM466 60l1 1 1-1-1-1-1 1zM404 64v1c2 1 3 0 1-1h-1zM467 64l-1 2c1 1 2-1 2-2h-1zM404 69v1l2-1-1-1-1 1zM466 69l1 1 1-1-1-1-1 1zM404 74l1 1 1-1-2-1-1 1zM466 74l1 1 1-1-1-1-1 1zM404 78c-1 1 0 2 1 1v-2l-2 1zM466 78l1 1 1-1-1-1-1 1zM381 109c-2 1-1 3 3 5l3 2c0 2-3 2-5 1h-2c0 1 4 2 6 1 3-1 2-4-2-5s-4-4-1-4l3 1h1c-1-2-5-3-6-1zM394 114c0 3 1 4 1 2v-6c-1-1-1 0-1 4zM402 113v5l1-4v-3l2 2 3 4c2 2 2 2 2-3 0-6 0-6-1-2v4l-3-4-3-4-1 5zM417 110c-2 4 0 8 3 9 2 0 5-1 5-3h-1c-2 3-5 2-6 0-2-5 1-9 5-6h2l-4-2c-2 0-3 0-4 2zM431 113c1 5 1 5 4 6 3 0 3 0 1-1l-3-1v-2l3-1 3-1h-3l-3-1v-2l3-1c3-1 3-1-1-1h-4v5zM448 110l-1 1c1 0 2 1 2 4 1 4 1 4 1-1v-6l-2 2zM458 109c-1 2-1 8 1 9 3 2 5 0 5-5 0-4-1-5-3-5l-3 1zm5 1c0 1-2 3-3 2l-1-2c0-1 3-2 4 0zm0 5-2 3c-1 0-4-1-3-3s5-1 5 0zM470 109c-1 3 1 5 3 6 2 0 3 1 2 2h-5l3 1c3 0 5-4 3-8-1-2-5-3-6-1zm5 3c0 3-3 3-4-1 0-2 0-2 2-2s2 1 2 3zM483 110c-2 2 0 5 3 4l2 2c0 1-2 2-3 1l-1 1c2 3 4 0 4-5 0-4 0-4-2-5l-3 2zm5 1c0 2-3 4-4 2-2-1 0-4 2-4l2 2zM433 136v3h-21v6c0 6 0 6 3 6 2 0 3 0 3-3v-4l19 1h18v3c0 3 1 3 3 3 3 0 3 0 3-6v-6h-21v-3c0-3 0-3-3-3-4 0-4 0-4 3zM490 136c0 2 0 2-10 2h-10l-1 18a132 132 0 0 1-3 29l3 1c3 0 3 0 4-8 2-4 3-13 3-21v-13h39v-3c0-2 0-2-9-3-9 0-9 0-9-2 0-3 0-3-3-3-4 0-4 0-4 3zM363 139l-1 3c0 2 0 2 10 2h11v35h-8l-1-12v-12h-6v24l-4 1c-4 0-4 0-4 3v3h24l23-1v-5h-9l-8-1-1-7v-7h13v-6h-13v-7l1-8h14v-6h-20l-21 1z"/>
  <path d="M491 153v5l-6 1c-6 0-6 0-6 3s0 3 6 3h6v14l-8 1h-8v6h39v-6h-17v-15h6c6-1 7-1 7-3 0-3 0-3-6-3l-6-1-1-5c0-6 0-6-3-6s-3 0-3 6zM421 149l-1 19v18h16c19 0 19 0 19-11v-6h-14c-13 0-14 0-14-2s1-2 10-2l12-1c2-1 3-2 3-9v-7h-15l-16 1zm25 7c0 2-1 2-10 3h-9v-5h10c9 0 9 0 9 2zm2 21v3h-21v-6h21v3zM293 164c-1 3-2 3-4 3-5 0-5 1-2 4 2 2 2 3 2 6-1 4-1 5 3 2h6l3 2v-4c0-3 0-4 2-6 4-3 4-4-1-4-3 0-4 0-5-3l-2-4-2 4zM323 164c-2 2-2 3-5 3-4 0-4 1-1 4 2 2 2 3 2 6l-1 4 3-2c3-1 4-1 7 1l4 1-1-4c-1-3-1-3 2-6s3-4-2-4c-3 0-3 0-4-3l-2-4-2 4zM545 164c-2 2-2 3-5 3-4 0-4 1-1 4 2 2 2 3 2 6l-1 4 3-2c3-1 4-1 7 1l4 1-1-4c-1-3-1-3 2-6 4-3 3-4-1-4-3 0-4 0-5-3l-2-4-2 4zM575 163l-4 4-4 1c-2 0-2 1 1 3s3 3 2 6l-1 4 4-2h7l3 2v-4c-1-3-1-4 1-6 4-3 4-4-1-4-3 0-3-1-5-4l-2-4-1 4zM323 193c-2 4-2 4-5 4-5 0-5 1-1 4 2 2 2 3 1 6v4l2-1c4-2 5-2 9-1l3 2-1-4c-1-3 0-3 2-6l3-4h-4c-3 0-4 0-6-4l-2-4-1 4zM575 193c-2 4-3 4-6 4h-4l3 3c3 3 3 4 2 7-1 4-1 5 2 3 3-3 5-2 9 0l2 1v-4c-1-3-1-4 2-7l3-3h-4c-4 0-4 0-6-4l-2-4-1 4zM293 193c-1 3-2 4-5 4-5 0-5 1-1 3 2 2 2 3 2 7l-1 4 4-2h7l3 2v-4c-1-3-1-4 1-6 4-3 4-4-1-4-3 0-4-1-5-4l-2-3-2 3zM545 194c-2 3-2 3-5 3-5 0-5 1-1 4 2 2 2 3 1 6v4l3-2c4-1 4-1 10 2v-4c0-3 0-4 2-7l3-3h-4c-3 0-4 0-5-3-2-4-2-4-4 0zM464 197l-6 7c-2 4-5 6-6 6l-6-4c-7-7-13-4-10 5 1 3 0 4-6 5-5 0-6 2-4 6 1 2 2 2 6 2 6-1 11 0 11 2 0 3-4 7-9 9-5 3-6 6-2 8h6l11-3c6-2 8-2 9-1l6 1c2-1 3-1 4 1s1 2-3 6c-6 5-7 10-5 14 2 2 3 2 8 1h14c6-1 7-1 7-3 0-5-5-13-10-13-2 0-3 1-2 3 2 3-1 5-5 5s-4-1-2-5c2-5 1-12-3-16l-4-5c-1-3-1-3 2-3s4 0 5-3 1-4 5-4c9 0 10-7 3-9-3-1-3-1-3-4 0-6-7-11-11-8zm-8 21c2 2 2 2 0 5l-3 3-6-6c0-4 7-5 9-2zm0 11c0 3-2 5-5 4-1-1-1-1 1-4 3-3 4-3 4 0zM381 249v35h34v-71h-34v36zm17-30 8 1c6-1 7-1 7 1 0 1-1 2-3 2-2 1-3 5-3 9l3 1 3 2c1 3 0 8-2 8-1 0-3-3-2-4v-2c-1-2-2-2-10-2l-10 1v3c-1 4-3 5-4 1l2-5 2-6v-5h8l4-1h-13c-5 1-5 1-5-1s1-2 6-2 6 0 6-2c1-2 3-2 3 1zm8 19v4c-1 2-1 2-6 2h-6v-7h5l6 1zm-9 10-2 1v1l2 4c0 2 1 3 2 3l1-3 2-4c2-1 2-1 0-1s-3-1-3-2l5-1c5 0 9 2 6 3h-4l2 2c2 0 2 0 2 3l-2 5c-1 1-1 1 1 1 3-1 3 0 3 4l-1 4-6 1-11 1c-4 1-5 1-5 4s-1 4-3 5c-2 2-2 2-3 0 0-1 0-2 2-3l2-4 1-4c1 0 1-1-1-1-2-1-2-1-1-3l3-1c2 1 2 1 1-1-2-1 0-5 3-5 2-1 2-1-1-1l-3 1-1 2-1-4c0-3 0-4 2-5s2-1 0-1c-3 0-5-1-4-2s11 0 12 1zm2 24-3 1-2 1 3 1 2 1c0 2-1 2-4 2-4 0-4 0-4-2l1-4 3-1c3-1 4 0 4 1zm11-1-3 2c-4 0-4 2 1 2s4 2-2 3h-5v-3l1-4h7z"/>
  <path d="M397 227c-3 0-5 0-4 1h11c0-1-1-2-7-1zM396 232c-2 0-4 0-3 1s11 0 11-1l-2-1-6 1zM397 240c-1 1 0 1 2 1l3-1-2-1-3 1zM403 253l1 1v-1l-1-1-1 1zM403 256h3c1-1 1-1-1-1l-2 1zM397 260h6c1-1 0-1-3-1-4 0-5 1-3 1zM407 262l1 1 1-1v-1l-2 1zM395 263h4c7 0 7-1 1-1l-5 1zM394 267h3c5 0 5-1 1-1l-4 1zM323 222c-1 4-2 5-7 5h-3l3 3c3 3 3 3 2 6 0 4 0 5 4 3 2-2 3-2 6 0l4 2-1-4c0-4 0-5 3-7l2-3h-4c-3 0-4-1-5-4-2-5-3-5-4-1zM545 222c-1 4-2 5-7 5h-3l3 3c3 2 3 3 2 6 0 4 0 5 4 2 3-1 3-1 7 1l3 2v-3l-1-4 2-4 3-3h-4c-3 0-4-1-5-4-2-5-3-5-4-1zM574 223c-1 3-2 3-5 4h-4l3 3c3 3 3 4 2 7s0 4 4 2c2-2 3-2 5 0 4 2 4 1 4-2-1-3-1-4 2-7l4-3h-4c-4 0-5-1-7-5l-2-3-2 4zM293 224c-2 3-2 3-6 3h-3l2 3c3 3 3 3 3 7l-1 4 3-2 4-2 4 2 3 2v-4c-1-4-1-5 2-7l2-3h-3c-4 0-4 0-6-4l-2-3-2 3zM433 250l-6 6c-2 2-2 2 0 7 1 3 1 3 4 2l6-2c4-2 5-1 2 4-6 10-16 20-23 24-4 2-5 2-4 3 2 2 8 0 16-5 6-3 19-16 21-21 3-5 4-4 12 4l7 7 11 9 13 8 7 2 7 2c7 0 7 0 8-2 0-2 0-4-2-5l-2-4c-1-2-2-2-5-2-4 0-14-3-17-5l-7-3c-3 0-5-1-8-4l-10-9-7-6 1-7 1-6-8-1c-6 0-6 0-6 3l-2 5c-3 2-3 2-4 0l1-4c3-4 3-4 0-4-2 0-4 1-6 4zm17 1c0 2-3 6-3 5-2-1 0-6 2-6l1 1z"/>
  <path d="m453 274-1 3-6 8-6 7c1 2 5 1 8-1s6-3 6 0c0 2-9 11-15 14l-3 3c1 2 7 1 13-2l7-3 1 3c0 3-8 11-14 14l-4 3c-2 2-6 4-13 6-7 1-9 1-21-1l-5 1c0 4 10 6 18 4 6-2 6-2 6 0-1 1 0 1 2 1l6-1c4-1 17-6 18-8l4-4c2 0 6-4 10-8 7-7 9-10 6-15-2-1-2-1-4 1-3 3-3 3-3-4 0-5-1-5-4-6s-4-2-1-7c2-4 1-6-2-8h-3zM432 345c-8 2-11 10-11 22s4 19 13 20c6 0 11-2 14-6 3-5 2-14-1-17-4-5-14-6-17-2-3 3-3 0-1-7 2-6 10-7 13-2 1 1 2 2 5 2s3 0 2-3c-2-6-11-9-17-7zm9 22c4 3 3 11-2 14s-11-2-11-9 8-10 13-5zM437 394v3l-2 4v2c2-1 2-1 2 2 1 3 1 3 1 0l1-4h1l-1-1-1-4c0-3-1-5-1-2zM421 395l-1 2 3-3-2 1zM442 397c0 4 0 4 3 3 3 0 4-1 4-4 0-2-1-3-4-3s-3 0-3 4zm6-2-2 1-3-1 3-1 2 1zm0 3-2 1-3-1 3-1 2 1zM425 396l-2 2c-2 0-3 1-3 3l1 2 1-2 1-2c2 0 2 0 2 2v5c0 3 0 3 1 0v-5l2-2 3-1h-3c-1 0-2 0-2-2v-1l-1 1z"/>
  <path d="M279 401c-3 1-3 3 0 2 4-1 9 2 17 9 21 19 44 34 67 42 22 7 38 10 64 11 59 1 98-13 148-53 7-7 10-8 13-8 4 0 4-1 0-4-4-2-8-1-21 10-43 35-82 49-132 49-51 0-94-16-132-47-17-14-19-15-24-11z"/>
  <path d="M448 402h-2c-2-1-1 2 2 4 2 2 2 2 0 0v-3l1-1h-1zM441 406c-1 2-1 2 1 1l1-1h-2zM275 410c-6 5-2 17 6 23 6 4 17 9 31 12l19 7c6 2 12 8 12 10l3-3 3-6-6-3c-14-8-36-22-48-34-10-9-16-11-20-7zM578 414c-14 13-32 25-49 34l-10 4 3 6 3 5 2-3c2-5 13-10 35-17 18-4 29-11 33-19s1-16-6-16c-3 0-5 1-11 6z"/>
  <path d="m276 448-7 8 15 1c18 0 27 1 43 8 13 5 15 5 14 0-2-6-12-11-32-16l-19-6-7-4-7 9zM579 442c-4 2-12 5-20 6-14 4-27 10-30 14-4 5 0 8 9 4 16-7 32-10 49-10 13 0 13 0 11-2l-13-15-6 3zM89 532v33h14v-15c0-15 0-15 3-17 4-5 9-3 11 2l1 17v13h14v-17c-1-15-1-18-3-21-4-8-14-11-22-6l-4 3v-25H89v33zM55 502c-15 4-24 16-24 33 0 8 3 15 8 21s12 9 22 10c8 0 19-1 19-3l-1-6c-1-5-1-5-4-4l-9 1c-14 0-21-8-20-23 1-11 7-17 19-18l9 1 4 1 1-6 2-5-3-1c-4-2-17-2-23-1zM387 534v31h14v-10c0-10 0-11 3-14l3-3 7 14 8 13h16a615 615 0 0 0-21-36l10-14 10-12-8-1h-9l-10 14-9 13v-27h-14v32zM657 525c0 24 0 24-3 26-2 3-3 3-8 3l-6-1-1 4v6c-1 2 1 3 10 3 7 0 12-1 16-5 5-5 6-10 6-36v-23h-14v23zM158 519c-10 3-16 10-17 21 0 9 1 15 6 19 5 5 10 7 19 7 6 0 15-2 16-3l-1-5c-1-4-1-4-4-3-11 2-22-1-22-7l15-1h14v-6c0-10-3-17-10-20-5-3-11-3-16-2zm11 11 2 5c0 2-1 2-8 2h-9l1-3c2-6 9-8 14-3zM209 519c-10 3-16 9-18 18-3 12 3 23 13 27 5 3 15 3 21 0 14-6 18-26 7-38-5-6-15-9-23-7zm12 14c4 6 2 19-3 22-8 5-16-8-12-20 2-5 4-6 8-6s5 1 7 4zM270 519c-3 1-6 2-7 4-4 3-4 3-4-1 0-2-1-2-6-2h-6v45h14v-14c0-16 1-19 6-21 3-1 7 1 8 5l1 16v14h14v-17c0-15 0-17-2-21-4-7-10-10-18-8zM316 519c-5 1-7 3-11 7-7 8-8 21-3 30 6 9 18 12 26 5l3-2v4c-1 6-3 9-8 10-4 1-7 1-16-2-1 0-2 0-2 3l-2 5c0 2 0 3 5 4l12 1c14 0 21-5 24-16l1-27v-22h-6c-6 0-6 0-6 2l-1 3-3-3-5-2h-9zm12 12c4 4 4 17 0 21-3 3-8 3-11 0-7-7-3-23 6-23l4 2zM522 519c-7 1-11 3-11 5l3 7 5-2c7-2 15 0 15 4 0 2-1 2-4 2-15 0-25 10-22 21 3 9 15 13 23 7 5-2 5-2 5 0s1 2 6 2h7l-1-16c0-18-1-21-4-25-5-5-13-7-22-5zm13 29c-1 5-4 8-8 8l-4-2c-4-5 1-10 8-10h4v4zM582 519c-2 1-5 2-6 4-4 3-4 3-4-1 0-2-1-2-6-2-6 0-6 0-6 2v43h14v-15c0-15 0-15 3-17 2-3 6-4 9-1 2 2 3 2 3 17v16h14v-18c0-16-1-18-3-21-3-6-10-8-18-7zM694 519l-8 2c-3 1-3 1-3 5l2 4 6-1c5-1 10-1 13 2 4 3 2 4-4 4-8 1-15 4-18 8s-3 13 0 17c4 6 16 8 22 3 3-2 3-2 4 0 0 2 1 2 6 2h6v-15c0-17-1-22-5-26-3-5-12-7-22-5zm12 29c0 5-3 8-7 8-3 0-6-2-6-5 0-4 4-7 10-7 3 0 3 0 3 4zM755 519c-4 1-7 2-9 5-1 1-2 1-2-2 0-2-1-3-6-3l-6 1-1 22v23h15v-15c0-15 0-15 3-17 4-5 9-3 11 3l1 16v13h14v-15l-1-18c-2-10-10-15-19-13zM801 519c-4 1-9 3-11 6-6 6-8 20-4 28 5 11 18 15 26 9l3-2v3c0 4-2 8-5 9-5 2-9 2-15 0-5-1-6-1-7 5 0 5 0 5 9 7 10 2 20 0 26-5 5-5 6-9 6-35v-25h-6c-5 0-6 1-6 3s-1 2-1 1c-2-3-11-5-16-4zm12 13c3 3 3 16 0 19-4 5-11 4-14-2-2-6-1-15 4-18 3-2 8-2 10 1z"/>
  <path d="m436 520 6 23 6 22h14l3-10 4-15c0-4 0-4 4 10l4 15h13l7-22 7-23-7-1-6 1-2 4-3 17-2 11-4-14c-4-20-4-19-10-19h-6l-4 17c-3 15-4 16-4 12l-6-28c-1-2-14-1-14 0zM353 541v4h25v-9h-25v5zM612 541v4h24v-9h-24v5zM213 597c-2 1-1 3 1 3l1-1c0-2-1-3-2-2zM259 597c-2 1-1 3 1 3l1-1c0-2-1-3-2-2zM282 597c-2 1-1 3 1 3l1-1c0-2-1-3-2-2zM328 597c-2 1-1 3 1 3l1-1c0-2-1-3-2-2zM570 597c-2 1-1 3 1 3l1-1c0-2-1-3-2-2zM616 597c-2 1-1 3 1 3l1-1c0-2-1-3-2-2zM39 599l2 1 1-1-1-2-2 2zM51 598c-1 1 0 2 2 2l1-1c0-2-2-3-3-1zM62 599l2 1 1-1-1-2-2 2zM74 598c-1 1 0 2 2 2l1-1c0-2-2-3-3-1zM85 599l2 1 1-1-1-2-2 2zM97 598c-1 1 0 2 2 2l1-1c0-2-2-3-3-1zM108 599l2 1 1-1-1-2-2 2zM120 599l2 1 1-1-1-2-2 2zM131 599l2 1c2-1 2-2 0-3l-2 1zM143 599l2 1 1-1-1-2-2 2zM154 599l2 1c2-1 2-2 0-3l-2 1zM166 599l2 1 1-1-1-2-2 2zM177 599l2 1c2-1 2-2 0-3l-2 1zM189 599l2 1 1-1-1-2-2 2zM200 598c1 2 3 2 3 1l-2-2-1 1zM223 598l2 2 2-2-2-1-2 1zM235 599l2 1 1-1-1-2-2 2zM246 598l2 2 2-2-2-1-2 1zM269 598l2 2 2-2-2-1-2 1zM292 598l2 2 2-2-2-1-2 1zM304 599l2 1 1-1-1-2-2 2zM316 598v1c1 1 3 0 3-1h-3zM339 598v1c1 1 3 0 3-1h-3zM350 599l2 1 1-1-1-2-2 2zM362 598c-1 1 0 2 2 2l1-1c0-2-2-3-3-1zM373 599l2 1 1-1-1-2-2 2zM385 598c-1 1 0 2 2 2l1-1c0-2-2-3-3-1zM396 599l2 1 1-1-1-2-2 2zM408 598c-1 1 0 2 2 2l1-1c0-2-2-3-3-1zM419 599l2 1 1-1-1-2-2 2zM431 599l2 1 1-1-1-2-2 2zM442 599l2 1c2-1 2-2 0-3l-2 1zM454 599l2 1 1-1-1-2-2 2zM465 599l2 1c2-1 2-2 0-3l-2 1zM477 599l2 1 1-1-1-2-2 2zM488 599l2 1c2-1 2-2 0-3l-2 1zM500 599l2 1 1-1-1-2-2 2zM511 598c1 2 3 2 3 1l-2-2-1 1zM523 599l2 1 1-1-1-2-2 2zM534 598l2 2 2-2-2-1-2 1zM546 599l2 1 1-1-1-2-2 2zM557 598l2 2 2-2-2-1-2 1zM580 598l2 2 2-2-2-1-2 1zM592 599l2 1 1-1-1-2-2 2zM603 598l2 2 2-2-2-1-2 1zM626 598l2 2 2-2-2-1-2 1zM638 599l2 1 1-1-1-2-2 2zM649 598l2 2 2-2-2-1-2 1zM661 599l2 1 1-1-1-2-2 2zM673 598v1c1 1 3 0 3-1h-3zM684 599l2 1 1-1-1-2-2 2zM696 598c-1 1 0 2 2 2l1-1c0-2-2-3-3-1zM707 599l2 1 1-1-1-2-2 2zM719 598c-1 1 0 2 2 2l1-1c0-2-2-3-3-1zM730 599l2 1 1-1-1-2-2 2zM742 599l2 1 1-1-1-2-2 2zM753 599l2 1 1-1-1-2-2 2zM765 599l2 1 1-1-1-2-2 2zM776 599l2 1c2-1 2-2 0-3l-2 1zM788 599l2 1 1-1-1-2-2 2zM799 599l2 1c2-1 2-2 0-3l-2 1zM811 599l2 1 1-1-1-2-2 2zM822 598c1 2 3 2 3 1l-2-2-1 1zM166 639c-6 1-12 8-13 13-3 10 2 22 9 26 4 2 13 3 18 1 10-4 15-20 9-32-2-5-6-7-12-9h-11zm11 7c4 4 6 13 4 20-3 7-10 9-15 4s-5-17 0-22c2-3 8-4 11-2zM602 638c-5 2-8 5-9 8-2 8 1 12 11 17 7 3 8 5 5 8-1 2-4 2-13 1-2 0-2 0-3 3v4h19c5-2 8-6 8-11 0-6-2-9-11-13-7-4-8-6-6-9l8-1 6 1 1-3c0-4 0-4-5-5h-11zM118 659v21h9v-7c0-6 0-8 2-9 2-2 2-3 9 10l3 6h5l5-1-7-12-7-11 7-9 7-9h-11l-6 9-6 9-1-9v-9h-9v21zM199 640v40h9v-9c0-9 0-9 5-7 3 1 3 2 5 9l2 7h10l-2-6c-2-8-5-13-6-13l2-3c3-3 4-4 4-8 0-9-5-12-19-12-9 0-10 0-11 2zm19 6v8l-6 3h-4v-6l1-6c1-1 7 0 9 1zM235 659v21h27v-8h-18v-5l1-4 7-1h8v-7h-15v-9l8-1h8v-7h-26v21zM277 641l-11 38 4 1h5l1-5 2-5h12l2 5 1 5h5c6 0 6 3-2-23l-6-18-6-1h-6l-1 3zm10 14 2 7h-10l2-8 3-7 3 8zM309 659v21h9l-1-16v-15l3 6 9 15 5 10h10v-42h-9v15l1 14-6-11c-10-18-9-18-16-18h-5v21zM365 659v21h9v-17h3c4 1 6 3 7 8 2 8 3 9 7 9h5l-2-7c-2-8-4-12-6-12l2-3c4-3 4-4 4-8 0-9-5-12-19-12h-10v21zm19-13v9l-6 2h-4v-6l1-6c1-1 7 0 9 1zM401 659v21h27v-8h-17v-10h15v-7h-15v-9h16v-8h-26v21zM435 659v21h11c8-1 11-1 15-3 7-4 10-9 10-19 0-7-1-11-6-15-4-4-9-5-20-5h-10v21zm21-12c6 2 8 12 4 19-2 4-7 7-12 7h-4v-28h5l7 2zM500 640c-7 4-10 9-11 17 0 9 1 13 6 17 5 5 11 6 20 6 11-1 10-1 10-13v-11h-15v4c0 3 0 3 3 3s3 0 3 5c0 4-1 5-4 5-4 0-10-3-12-6-2-5-2-13 0-16 4-5 12-7 19-5 3 1 3 1 4-3 1-3 1-3-2-4-4-2-15-1-21 1zM533 659v21h9v-42h-9v21zM550 659v21h9v-15c0-14 0-18 2-13l7 15 7 13h10v-42h-9v15l1 15-5-10-8-14c-3-5-3-5-8-6h-6v21zM627 659v21h26v-8h-17v-10h15v-7h-15v-4c0-4 0-5 3-5l8-1h5v-7h-25v21zM660 659v21h8v-31l7 13c10 19 9 18 15 18h4v-42h-8v29l-2-4-7-14-6-11h-11v21zM715 639c-9 4-13 9-14 19s5 19 14 21c4 1 17 1 20-1 2 0 2-2 2-11v-11h-15v3c0 4 0 4 3 4s4 1 4 5 0 4-2 5c-4 0-10-1-13-4-5-6-4-15 1-20 4-4 9-5 15-3l4 1 1-4 1-4h-21z"/>
</svg>
