<svg xmlns="http://www.w3.org/2000/svg" viewBox="0 0 5118 5119">
  <linearGradient id="a" x1="2558.8" x2="2558.8" y1="5116.6" y2="-2.4" gradientTransform="matrix(1 0 0 -1 0 5117)" gradientUnits="userSpaceOnUse">
    <stop offset="0" stop-color="#dd3069"/>
    <stop offset="1" stop-color="#942049"/>
  </linearGradient>
  <path fill="url(#a)" d="M2637 5119h-152c-7-3-14-3-21-3-81-4-161-11-241-22A2571 2571 0 0 1 164 3457C76 3224 23 2981 7 2731c-1-13-3-27-7-40v-265c4-11 6-23 7-35A2526 2526 0 0 1 606 906 2566 2566 0 0 1 2345 6c28-2 57 0 84-7h260c20 6 40 3 60 5a2528 2528 0 0 1 1196 401 2556 2556 0 0 1 1170 2050l2 25v152c-2 9-2 20-3 30 0 24 0 49-2 73a2536 2536 0 0 1-863 1743 2560 2560 0 0 1-1533 632c-26 3-53 2-79 8zM1603 3898c42 1 90-4 137-15 141-30 261-95 352-208 56-70 103-145 144-224a3142 3142 0 0 0 228-652c15-69-2-112-78-136-96-30-193-57-292-79-164-36-329-59-498-53-47 2-95 7-142 15a612 612 0 0 0-346 187 683 683 0 0 0 495 1165zm271-2365c-1 48 8 101 22 154 29 100 76 192 131 279 126 197 285 366 457 523 14 13 31 24 49 32 18 9 36 9 55 1 18-7 34-18 47-32 60-59 119-119 176-180 79-87 155-176 224-272 62-86 118-178 159-277 42-98 62-200 48-306a681 681 0 0 0-232-443 661 661 0 0 0-552-162 690 690 0 0 0-583 683zm1671 2361c16-1 46 0 77-5a662 662 0 0 0 477-301 671 671 0 0 0 108-447 667 667 0 0 0-180-395 622 622 0 0 0-328-191c-71-16-143-22-216-23-86-2-172 6-257 18-169 23-335 64-498 115-17 5-33 13-46 24a67 67 0 0 0-27 54c0 19 2 39 6 58l30 115c48 174 105 343 185 505 45 94 98 182 165 261 52 60 112 108 183 143 98 46 199 71 321 69z"/>
</svg>
