<svg xmlns="http://www.w3.org/2000/svg" viewBox="1 1 988 181">
  <path d="M381 7H274v39h27v131h51V46h29zM93 7l-1 170h50V7zm612 0v170h46v-76l38 76h56V7h-49v84L752 7zM1 7v170h86v-36H46V7zm858 0v170h105v-39h-54v-27h44V72h-44V46h54V7zM388 7v170h105v-39h-54v-27h45V72h-45V46h54V7zm219 99c17-9 29-26 29-46 0-29-24-53-54-53h-82v170h49V91l40 86h102V7h-48v167zm-39-58c11 0 19 8 19 18s-8 19-19 19h-19V48h19z"/>
  <path d="M150 122h44v7c0 11 12 17 19 17 12 0 18-7 18-17 0-14-12-15-26-20-18-6-28-11-38-20-11-9-17-22-17-39 0-28 29-49 63-49 33 0 63 22 63 49v7h-45v-7c0-8-8-14-18-14-12 0-16 7-16 15 0 11 9 14 20 17 12 4 29 10 41 18 16 10 22 25 22 42 0 31-31 54-69 54-36 0-62-23-62-53zM981 22l-5-6h2l2-2-2-2h-2v8l1 2h-3V11h7l1 3c0 1-2 3-4 3l6 5zm-3-14c-4 0-8 4-8 9a8 8 0 0 0 8 8 8 8 0 0 0 0-17m0 18c-5 0-9-4-9-9 0-6 4-10 9-10 6 0 10 4 10 10 0 5-4 9-10 9"/>
</svg>
