<svg xmlns="http://www.w3.org/2000/svg" viewBox="0 0 1034 221">
  <path fill="#706d6e" d="M1034 100V82h-23V53l-1 1-21 6v22h-34V70c0-6 2-10 4-13s6-4 10-4l10 2h1V36l-13-1c-7 0-13 1-18 4s-9 7-12 12-4 11-4 18v13h-16v18h16v76h22v-76h34v49c0 20 9 30 28 30a46 46 0 0 0 16-4h1v-18l-1 1-5 1-4 1c-5 0-8-1-10-3-2-3-3-7-3-12v-45h23zm-167 60c-9 0-15-2-20-8-4-5-6-13-6-23s2-18 6-23c5-5 11-8 19-8s15 2 19 8c4 5 7 13 7 23s-2 18-7 23c-4 6-10 8-18 8m1-81c-16 0-28 5-37 14s-14 22-14 37 5 27 13 36c9 8 21 13 35 13 16 0 28-5 37-14 8-9 13-22 13-37s-4-27-13-36c-8-8-20-13-34-13m-87 0c-11 0-19 3-26 8-7 6-10 13-10 21 0 5 0 9 2 12 1 4 4 7 7 9l13 8 12 5 5 4 1 6c0 6-5 9-14 9l-13-2a46 46 0 0 1-12-7h-1v22l12 3 13 2c11 0 21-3 27-8 7-6 11-13 11-22 0-6-2-12-6-16-3-5-10-9-19-12l-13-7c-2-2-3-4-3-7s1-5 4-7c2-2 5-3 9-3a39 39 0 0 1 22 6l1 1V84l-1-1-10-2-11-2m-95 81c-8 0-15-2-19-8-5-5-7-13-7-23s2-18 7-23c4-5 11-8 19-8s14 2 18 8c5 5 7 13 7 23s-2 18-6 23c-5 6-11 8-19 8m1-81c-16 0-28 5-37 14s-13 22-13 37 4 27 13 36c8 8 20 13 35 13s27-5 36-14 13-22 13-37-4-27-12-36c-9-8-20-13-35-13m-85 19V82h-22v94h22v-48c0-8 2-15 6-20s8-8 14-8a26 26 0 0 1 12 3l1 1V81l-9-1c-5 0-10 2-15 5-4 3-6 8-8 13h-1zm-62-19c-10 0-19 3-27 7s-14 10-18 18a59 59 0 0 0 0 52c4 7 10 13 17 17s15 6 24 6c11 0 20-2 27-7v-20l-1 1a42 42 0 0 1-21 7c-9 0-16-2-21-8-5-5-8-13-8-22 0-10 3-18 8-24 6-5 13-8 21-8 7 0 15 2 21 7l1 1V84l-10-3-13-2m-66 3h-23v94h23V82zm-11-41c-4 0-7 2-10 4-2 2-4 6-4 9 0 4 2 7 4 9 3 3 6 4 10 4s7-1 9-4c3-2 4-5 4-9 0-3-1-6-4-9-2-2-5-4-9-4m-56 34v101h23V44h-32l-40 98-38-98h-33v132h21V75h1l41 101h16l40-101h1z"/>
  <path fill="#f1511b" d="M105 105H0V0h105v105z"/>
  <path fill="#80cc28" d="M221 105H116V0h105v105z"/>
  <path fill="#00adef" d="M105 221H0V116h105v105z"/>
  <path fill="#fbbc09" d="M221 221H116V116h105v105z"/>
</svg>
