<svg xmlns="http://www.w3.org/2000/svg" version="1.0" viewBox="0 0 450 94">
  <path d="M24 19 1 39l1 3h4l3-2v53h77V40l2 1c2 2 3 2 4 0l2-2c0-1-45-38-47-38L24 19zm41 4 14 11v53H16V34l16-13C47 8 47 8 49 10l16 13z"/>
  <path d="M40 29c-4 3-6 7-6 14 0 4 0 5-2 5l-2 2v27c0 2 3 2 18 2h17V64c0-14 0-15-2-16-2 0-2-1-2-6 0-7-2-11-7-14-4-2-10-1-14 1zm11 3c4 1 6 6 6 12v4H38v-6c1-5 1-7 3-9 3-2 6-3 10-1zm1 26c1 3 1 4-1 7l-1 4c-1 4-4 4-5-1l-2-4c-3-3 0-9 5-9l4 3zM111 49c0 21 0 25 2 25l1-23 1-23 9 23 10 23 10-23 10-22v23c0 19 0 22 2 22l1-25V24h-3c-2 0-3 2-11 22l-9 22-9-22c-8-21-9-22-11-22h-3v25zM167 29l8 16 6 11v9c0 7 0 9 2 9l1-9V55l6-10 8-16c3-5 3-5 1-5-1 0-4 3-9 14l-8 13-7-14c-5-10-7-13-9-13s-2 0 1 5zM203 28v4h13v42h10V32h14v-8h-37v4zM255 26l-17 47 5 1h5l2-6 1-6h20l2 6 1 6h11l-4-11-9-25-5-13-6-1c-5 0-6 0-6 2zm13 27-7 1-7-1 3-10 4-11 7 21zM292 49v25h8V34l7 20 6 20h9l6-19 7-20v39h9V24h-13l-7 20-7 19-6-20-6-18-6-1h-7v25zM369 26l-17 47 5 1h5l2-6 1-6h20l2 6 1 6h11l-4-11-9-25-5-13-6-1c-5 0-6 0-6 2zm13 27-7 1-7-1 3-10 4-11 7 21zM406 49v25h8V36l12 19 11 19h12V24h-8v19l-1 19-11-19-11-18-6-1h-6v25z"/>
</svg>
