<svg xmlns="http://www.w3.org/2000/svg" viewBox="2.6 5.3 159.1 124.5">
  <path d="m63 117.5.2.2H63.6l.5.1c1.6 0 2.9-1.1 2.9-2.6 0-1.4-1.3-2.6-2.9-2.6h-.5l-.2.1h-.1a.3.3 0 0 0-.1.3v4.5zm.6 5.8a.3.3 0 0 0-.2-.2c-.2 0-.3.2-.3.3v3.9c0 1-.9 1.8-2 1.8h-3c-1 0-2-.8-2-1.8V109c0-1 1-1.9 2-1.9h7.2c4.6 0 8.4 3.4 8.4 7.6 0 2.5-1.3 4.8-3.4 6.1l2.6 5.8.2.7c0 1-1 1.8-2 1.8h-3.6a2 2 0 0 1-1.8-1.2l-2-4.6zM34 116.8c0-1-1-1.8-2-1.8h-3.4c-.2 0-.3 0-.3-.2v-1c0-.2.1-.4.3-.4h5.8c1.1 0 2-.8 2-1.8V109c0-1-.9-1.8-2-1.8h-11c-1.1 0-2 .8-2 1.8v18.4c0 1 .9 1.8 2 1.8h11c1.1 0 2-.8 2-1.8v-2.7c0-1-.9-1.9-2-1.9h-5.8c-.2 0-.3 0-.3-.2v-1c0-.2.1-.3.3-.3h3.4c1 0 2-.8 2-1.8v-2.6zm-24.4.7.1.2a.5.5 0 0 0 .1 0h.3l.5.1c1.5 0 2.8-1.1 2.8-2.6 0-1.4-1.3-2.6-2.8-2.6H10l-.2.1h-.2a.3.3 0 0 0 0 .3v4.5zm0 6.5v3.3c0 1-.9 1.8-2 1.8H4.6c-1 0-2-.8-2-1.8v-18.4c0-1 1-1.8 2-1.8H11c5 0 9.2 3.8 9.2 8.4 0 4.6-4.1 8.4-9.2 8.4h-.7l-.4-.1c-.2 0-.4.1-.4.3m33.2-10.4v13.6c0 1 .9 1.8 2 1.8h3c1 0 2-.8 2-1.8v-13.6c0-.1 0-.3.2-.3h2.9c1 0 2-.8 2-1.8V109c0-1-1-1.8-2-1.8H39.5c-1 0-2 .8-2 1.8v2.7c0 1 1 1.8 2 1.8h3l.2.3m65.2 6.4.3-.3.2.1 8.7 8.7v.1c.3.2.7.4 1 .4h2c.8 0 1.5-.7 1.5-1.4v-18.8c0-1-.9-1.8-2-1.8h-2.9c-1 0-2 .8-2 1.8v7c0 .2-.1.3-.3.3a.3.3 0 0 1-.2 0l-8.6-8.6a1.5 1.5 0 0 0-1-.5h-2c-.9 0-1.6.7-1.6 1.5v18.7c0 1 1 1.8 2 1.8h3c1 0 2-.8 2-1.8V120zm-20.6-7.4c-3.3 0-6 2.4-6 5.4 0 3 2.7 5.4 6 5.4 3.2 0 5.9-2.4 5.9-5.4 0-3-2.7-5.4-6-5.4m12.8 5.4c0 6.4-5.7 11.6-12.7 11.6-7 0-12.8-5.2-12.8-11.6 0-6.4 5.7-11.6 12.8-11.6 7 0 12.7 5.2 12.7 11.6m50.8 1.3a6.9 6.9 0 0 1-2.7-5.4c0-4 3.6-7.1 8-7.1 3 0 3.7.3 4.4.6a2 2 0 0 1 1.2 1.8v2.2c0 1-.8 1.8-1.9 1.8-1 0-1.4-.5-2.3-.5-1 0-1.8.7-1.8 1.6 0 .4.2.8.5 1.1l.3.2 2.1 1.6c1.5 1.3 2.3 3.1 2.3 5 0 4-3.5 7.2-7.8 7.2-3.1 0-3.8-.3-4.5-.6a2 2 0 0 1-1.3-1.7v-2.3c0-1 .9-1.8 2-1.8s1.4.5 2.3.5c1 0 1.8-.7 1.8-1.6 0-.5-.3-1-.7-1.3a38 38 0 0 1-1.9-1.3m-14.3 1.4h-3.6c-.2 0-.3-.1-.3-.2v-.1l1.8-4.7a.3.3 0 0 1 .3-.2c.1 0 .2 0 .3.2l1.7 4.7c0 .2 0 .3-.2.3m10 6.6-7-19.3c-.2-.6-.8-1-1.5-1h-6.6c-.7 0-1.3.4-1.5 1l-7 19.3a1.1 1.1 0 0 0-.2.4c0 .7.7 1.3 1.5 1.3h4.1c.7 0 1.3-.4 1.5-1l.4-1 .3-.1h8.4l.3.1.3 1c.2.6.8 1 1.5 1h4.2c.8 0 1.4-.6 1.4-1.3a1.1 1.1 0 0 0 0-.4"/>
  <path fill="#00AE9D" d="M102.2 67.7a20.8 20.8 0 1 1-41.6 0 20.8 20.8 0 0 1 41.6 0"/>
  <path fill="#00AE9D" d="m99.4 36.5-14-24.3h28l-14 24.3zM81.4 92a24.3 24.3 0 0 1-20.8-36.6L81.5 19l20.9 36.3a24.3 24.3 0 0 1 3.3 12.3A24.3 24.3 0 0 1 81.5 92m21.9-48.6 22-38.1h-44L54.8 51.9a31.2 31.2 0 0 0-4.3 15.8A31.2 31.2 0 1 0 108.3 52l-5-8.5z"/>
</svg>
