<svg xmlns="http://www.w3.org/2000/svg" version="1.0" viewBox="0 0 1200 362">
  <path d="M67 9c-10 1-24 6-31 11-7 4-16 13-19 19-9 19-6 42 8 57 10 10 20 15 47 25 24 10 32 15 34 22 2 8-2 14-10 18-5 2-6 2-18 2-20 0-32-4-58-20l-4-2v39l9 4c22 10 33 12 58 12 19 0 27-1 41-8 30-15 39-55 17-80-8-10-20-17-57-31-20-8-25-12-25-21 0-11 17-17 38-14 9 1 27 7 39 12l9 4V22l-10-3C110 9 89 6 67 9zM739 12c-13 7-21 23-15 32 3 5 8 7 14 7 10-1 21-8 26-19 8-17-7-29-25-20zM294 103v91h38v-78l4-6c8-9 15-14 24-14 5 0 11 3 14 7 5 6 6 13 6 40v24l8-3c8-4 19-7 26-8l4-1v-24c0-26-1-32-5-41-9-17-31-26-52-21-8 3-15 7-22 14l-6 6-1-39V11h-38v92zM873 43v33l-6-3c-23-9-49-6-66 9-22 19-28 60-11 87 16 27 51 36 77 20l6-4v10h39V11h-39v32zm-16 51 11 4 5 2v62l-4 3c-8 5-12 6-19 6-20 0-32-16-31-42l2-14c4-10 11-18 21-20 7-2 9-2 15-1zM218 70c-28 5-48 24-54 49-1 9-1 25 2 33 4 15 16 30 30 36 13 7 21 8 39 8 15 0 20 0 35-5l7-2v-28l-10 4c-13 4-24 6-32 4-13-2-22-9-27-20-3-6-3-7-3-16 0-12 2-19 8-25 13-13 34-15 57-6l5 2V76l-8-3c-18-5-35-6-49-3zM504 70c-7 2-15 6-22 13l-6 5V70h-38v85h2c4 0 17 4 22 7l10 6 4 3v-57l5-6 9-10c9-6 21-6 28 1 6 6 6 8 6 54v41h39v-40l-1-47c-2-18-11-30-28-36-7-3-22-4-30-2zM630 70c-30 6-49 29-51 60-1 31 17 56 48 64 12 3 39 3 51 0 8-2 25-10 27-13 2-1 2-4 2-13l-1-11-4 3a69 69 0 0 1-41 14c-11 0-18-1-25-6-9-4-15-14-16-24l-1-5h90v-9c-2-26-14-45-34-55-14-7-31-9-46-6zm30 24c7 3 13 11 14 21l1 4h-55v-2c0-6 4-13 8-18 5-6 10-8 20-8 5 0 8 0 12 3zM980 69c-20 5-35 16-43 33-6 12-7 18-7 32 0 9 0 13 2 19 7 21 23 36 48 42 10 2 37 2 47-1 9-2 17-6 25-10l5-3v-24l-8 5-17 9c-7 2-9 2-21 2-12 1-14 0-19-2-7-3-13-7-17-13-3-4-6-14-6-18l45-1h45v-9c-1-12-3-19-8-29-7-14-21-26-37-31-7-2-26-2-34-1zm30 24c7 4 13 12 15 22v4h-55l1-4c0-6 4-13 7-16 7-8 21-10 32-6zM1150 69c-10 4-20 15-28 31l-3 7-1-19V70h-39v124h39v-28l1-29 5-9c11-23 23-29 42-19l8 4 5-17c6-19 6-18-5-24-8-4-18-5-24-3zM725 133v62h38V70h-38v63zM408 178a140 140 0 0 0-80 51l-3 4h11l11 1-3 9-2 7h-28l-3 6-3 7h16l16 1-3 8-2 8h-33v3l-2 12c-2 39 25 63 65 58 19-2 42-12 60-25 10-7 29-26 32-32l2-3h-15l-14-1 3-8 2-7h35l3-7 3-7h-19l-19-1 3-8 1-7h39l1-4v-14c0-27-14-45-39-51-8-2-26-2-35 0zm50 34-2 11-3 11h-13l-14 1-7 27-9 31c-5 10-19 20-33 23-4 2-11 2-29 2h-24l3-12 4-12 14-1c12 0 14-1 15-2l6-20 6-25c5-17 17-29 34-34 6-1 52-2 52 0zM524 271v53h62v-13h-47v-34h44v-13h-44v-34h45v-13h-60v54zM622 271v53h14V217h-14v54zM1046 227c-8 5-5 16 4 12 5-3 8-9 4-12-2-3-4-2-8 0zM877 253l-12 12 6 1h6v22c1 20 1 22 3 26 3 8 8 10 18 11 5 0 9 0 13-2l6-2v-12l-5 2c-6 3-12 4-16 2-5-3-5-5-5-26v-20l11-1h11v-12h-11l-12-1v-12l-13 12zM692 255c-25 10-26 54-1 67 4 2 7 2 15 3 10 0 16-1 24-5 4-2 4-2 4-9v-6l-6 3c-19 10-39 4-42-13v-4h49v-5c0-15-8-28-20-32-5-2-17-1-23 1zm23 12c3 2 7 9 7 13v2h-18l-18-1c0-2 2-8 4-10 5-7 18-9 25-4zM793 256c-11 4-17 12-20 24-4 20 4 37 21 43 5 2 7 2 16 2l15-2c3-1 3-1 3-8 0-5 0-6-2-5-8 3-18 4-25 2-5-2-11-7-13-11-3-6-3-18 0-23 5-12 19-17 33-10l6 3v-14l-7-2c-9-3-20-3-27 1zM979 256l-8 9-4 5-1-8v-8h-13v70h13v-21c1-19 1-22 3-26 2-5 8-11 12-11 4-1 10 1 14 4l2 2 2-4c6-8 6-7 0-11-3-3-6-3-10-4-5 0-6 0-10 3zM1117 254c-16 5-25 20-24 39 1 10 4 17 11 23 8 7 14 9 27 9l14-2 4-1v-7c0-6 0-6-2-6-12 6-26 5-34-2-10-10-8-31 3-39 4-2 5-3 12-3 8 1 10 1 19 6l1-7v-7l-6-2c-7-2-20-3-25-1zM1042 289v35h13v-70h-13v35z"/>
</svg>
