<svg xmlns="http://www.w3.org/2000/svg" viewBox="0 0 445 168">
  <path fill="#062849" d="M87 147c2-6-1-8-9-8H65l-3-1 1-2c1-2 2-2 5-2h17l7 1 1-7H59c-6 0-11 3-14 9l-3 8c-3 6-1 8 6 8h15l3 1-1 3-5 1H43l-7-1-2 7h33c9 0 13-3 16-8l4-9m89 2 8 1 3-8-9 1h-13l4-9h15l8 1 2-7h-42l-1 6-11 24-3 5-2-6-6-18 12-7 8-4h-17v2l-5 3-17 11 4-10 5-6H97c1 2 1 3-1 6l-11 24c-1 4-2 5-4 6h21l2-6 2-5 6-4 4 15h62l5-7-9 1h-16l5-9h13m55 7-14 1h-8c-2 0-3-1-2-2a1106 1106 0 0 1 11-19h14l6 1 2-9h-29c-7 0-13 3-17 11l-6 15c-4 8-1 10 7 10h29l7-8m52 2 11-24 4-6h-21l-2 6-3 9h-14l4-9 4-6h-21l-2 6-10 24c-2 4-3 5-5 6h22c-1-1-1-2 1-6l4-9h14l-4 9c-2 4-3 5-5 6h22c-1-1-1-2 1-6m38 0h-15l4-9h13l8 1 3-8-8 1h-13l4-9h15l7 1 2-7h-41l-2 6-11 24c-1 4-3 5-4 6h42l5-7-9 1m54-22-2 5c0 1-1 2-4 2h-10l4-9h10c3 0 3 0 2 2zm6 13c4-1 7-1 10-6l3-7c2-6-1-8-9-8h-40c1 2 1 3-1 6l-10 24c-2 4-3 5-5 6h22c-1-1-1-2 1-6l4-9h6l1 15h21l-2-5-1-10m34-13c0-2 1-2 4-2h17l7 1 2-7h-34c-7 0-12 3-15 9l-3 8c-3 6-1 8 6 8h15c3 0 4 0 3 1l-1 3-4 1h-18l-7-1-1 7h33c8 0 13-3 15-9l4-8c3-6-1-8-8-8h-13c-3 0-4 0-3-1l1-2m24 28h1l1-1-1-1h-1zm1-2 2 1-1 1h1a1 1 0 0 1 0 1v1h-1v-1l-1-1h-1v2h-1v-4h2m-3 2c0 1 1 3 3 3a3 3 0 0 0 3-3c0-2-1-3-3-3s-3 1-3 3m7 0c0 2-2 4-4 4s-4-2-4-4 2-4 4-4a4 4 0 0 1 4 4"/>
  <path fill="#b2b1b1" d="m220 39-4 7h-12c6 5 8 12 8 16 0 5-2 10-5 16-11 21-24 29-50 30l-50 1H53c-12-1-22-3-27-11s-1-18 1-22l5-9h18c-9-6-13-18-6-31 7-15 16-25 35-29 12-2 39-2 51-2h61c9 0 26 0 32 13 4 8 1 15-3 21zm23-26c-6-9-18-13-37-13h-80c-13 0-42 0-58 3-24 4-36 17-43 30-4 10-8 25 2 34H11L4 78c-5 9-6 20 2 27 5 5 17 9 32 9h115c42 0 58-9 72-32 4-7 12-25-4-35h15l6-10c6-10 6-17 1-24"/>
  <path fill="#062849" d="m87 72-1 2c-3 8 7 8 14 8h36c8-1 15-1 18-8s-5-8-12-8c0 0-42 1-59-1-21-1-24-8-16-25 5-13 12-21 31-25 13-2 38-3 50-3l23 1c13 0 28 0 31 10 2 5-1 11-4 17h-32c3-7-2-8-9-8h-41c-6 0-13 1-15 7-4 8 8 7 15 7l44 1c25 0 38 4 28 26s-24 26-49 27l-63 1c-21-1-33-3-24-23l2-6h33"/>
</svg>
