<?xml version="1.0" standalone="no"?>
<!DOCTYPE svg PUBLIC "-//W3C//DTD SVG 20010904//EN"
 "http://www.w3.org/TR/2001/REC-SVG-20010904/DTD/svg10.dtd">
<svg version="1.0" xmlns="http://www.w3.org/2000/svg"
 width="256.000000pt" height="256.000000pt" viewBox="0 0 256.000000 256.000000"
 preserveAspectRatio="xMidYMid meet">

<g transform="translate(0.000000,256.000000) scale(0.100000,-0.100000)"
fill="#000000" stroke="none">
<path d="M1085 2535 c-180 -28 -364 -100 -518 -202 -94 -62 -235 -198 -309
-298 -71 -94 -169 -291 -198 -395 -85 -307 -60 -625 70 -898 67 -140 128 -230
230 -336 113 -118 218 -195 365 -267 180 -88 357 -129 555 -129 198 0 375 41
555 129 147 72 252 149 365 267 102 106 163 196 230 336 130 273 155 591 70
898 -29 104 -127 301 -198 395 -74 100 -215 236 -309 298 -94 63 -260 141
-353 167 -174 48 -387 62 -555 35z m-52 -822 c59 -90 71 -97 144 -83 74 13
139 13 201 -2 67 -15 101 0 132 55 40 73 70 107 93 107 31 0 134 -107 192
-200 66 -105 91 -130 132 -130 22 0 42 -8 57 -24 49 -48 44 -243 -11 -408 -74
-225 -277 -407 -522 -469 -117 -29 -280 -23 -396 14 -206 68 -388 240 -467
443 -32 84 -50 221 -41 323 7 86 23 111 69 111 53 0 69 14 108 88 64 120 195
257 240 250 13 -2 39 -30 69 -75z"/>
</g>
</svg>
